<svg width="200" height="130" viewBox="0 0 200 130" fill="none" xmlns="http://www.w3.org/2000/svg">
<rect width="200" height="130" fill="#312E38"/>
<path d="M47.8442 115.002V114.25H50.9667V115.002L49.9935 115.168V118.148H54.2085V115.168L53.2354 115.002V114.25H56.3578V115.002L55.3847 115.168V121.963L56.3578 122.129V122.876H53.2354V122.129L54.2085 121.963V119.066H49.9935V121.963L50.9667 122.129V122.876H47.8442V122.129L48.8174 121.963V115.168L47.8442 115.002Z" fill="#999591"/>
<path d="M61.5639 122.876C61.5281 122.702 61.5002 122.546 61.4803 122.408C61.4604 122.269 61.4465 122.131 61.4385 121.993C61.2116 122.281 60.927 122.522 60.5848 122.716C60.2464 122.905 59.8842 123 59.4982 123C58.8255 123 58.3141 122.838 57.9638 122.514C57.6136 122.186 57.4384 121.726 57.4384 121.134C57.4384 120.526 57.6852 120.058 58.1787 119.73C58.6763 119.398 59.3569 119.232 60.2206 119.232H61.4325V118.486C61.4325 118.111 61.3131 117.814 61.0743 117.597C60.8355 117.376 60.5032 117.265 60.0773 117.265C59.7827 117.265 59.522 117.303 59.2952 117.378C59.0723 117.453 58.8912 117.556 58.7519 117.686L58.6265 118.361H57.719V117.117C58.0136 116.884 58.3698 116.699 58.7877 116.56C59.2056 116.418 59.6594 116.347 60.1489 116.347C60.8813 116.347 61.4743 116.533 61.9281 116.904C62.3818 117.275 62.6087 117.806 62.6087 118.498V121.584C62.6087 121.667 62.6087 121.748 62.6087 121.827C62.6126 121.906 62.6186 121.985 62.6266 122.064L63.1042 122.129V122.876H61.5639ZM59.6713 122.023C60.0614 122.023 60.4176 121.93 60.74 121.744C61.0624 121.558 61.2932 121.335 61.4325 121.075V120.02H60.1788C59.6972 120.02 59.3151 120.131 59.0325 120.352C58.7539 120.573 58.6146 120.842 58.6146 121.158C58.6146 121.438 58.7021 121.653 58.8773 121.803C59.0524 121.95 59.3171 122.023 59.6713 122.023Z" fill="#999591"/>
<path d="M64.0833 122.129L65.0565 121.963V117.384L64.0833 117.218V116.466H66.2326V121.963L67.2058 122.129V122.876H64.0833V122.129ZM66.2326 114.824H65.0565V113.634H66.2326V114.824Z" fill="#999591"/>
<path d="M68.1073 117.218V116.466H70.1312L70.2446 117.396C70.4277 117.068 70.6526 116.811 70.9193 116.625C71.1899 116.44 71.4984 116.347 71.8446 116.347C71.9362 116.347 72.0297 116.355 72.1252 116.371C72.2248 116.383 72.3004 116.396 72.3521 116.412L72.1969 117.496L71.5282 117.461C71.2178 117.461 70.9571 117.534 70.7461 117.68C70.5352 117.822 70.372 118.024 70.2566 118.284V121.963L71.2297 122.129V122.876H68.1073V122.129L69.0804 121.963V117.384L68.1073 117.218Z" fill="#999591"/>
<path d="M75.9522 122.088C76.3422 122.088 76.6845 121.969 76.9791 121.732C77.2776 121.491 77.4268 121.197 77.4268 120.85H78.4836L78.4955 120.885C78.5154 121.438 78.2666 121.93 77.7492 122.36C77.2358 122.787 76.6368 123 75.9522 123C75.0129 123 74.2944 122.696 73.7969 122.088C73.3034 121.48 73.0566 120.715 73.0566 119.795V119.546C73.0566 118.634 73.3054 117.874 73.8029 117.265C74.3004 116.653 75.0168 116.347 75.9522 116.347C76.4696 116.347 76.9333 116.432 77.3432 116.602C77.7572 116.772 78.0995 117.005 78.3701 117.301L78.4239 118.723H77.4865L77.2298 117.716C77.0905 117.581 76.9114 117.473 76.6925 117.39C76.4736 117.307 76.2268 117.265 75.9522 117.265C75.3353 117.265 74.8935 117.486 74.6268 117.929C74.3641 118.367 74.2327 118.906 74.2327 119.546V119.795C74.2327 120.451 74.3641 120.998 74.6268 121.436C74.8895 121.871 75.3313 122.088 75.9522 122.088Z" fill="#999591"/>
<path d="M84.2628 121.928C84.0598 122.271 83.7971 122.536 83.4747 122.722C83.1563 122.907 82.7881 123 82.3702 123C81.6697 123 81.1224 122.777 80.7284 122.331C80.3343 121.884 80.1373 121.189 80.1373 120.245V117.384L79.397 117.218V116.466H81.3135V120.257C81.3135 120.94 81.415 121.41 81.6179 121.667C81.8209 121.924 82.1374 122.052 82.5672 122.052C82.9851 122.052 83.3294 121.969 83.6001 121.803C83.8747 121.634 84.0817 121.395 84.221 121.087V117.384L83.3553 117.218V116.466H85.3971V121.963L86.1374 122.129V122.876H84.3404L84.2628 121.928Z" fill="#999591"/>
<path d="M89.1226 114.919V116.466H90.3465V117.33H89.1226V121.223C89.1226 121.523 89.1842 121.734 89.3076 121.857C89.435 121.979 89.6022 122.04 89.8091 122.04C89.9126 122.04 90.028 122.032 90.1554 122.017C90.2867 121.997 90.3962 121.977 90.4838 121.957L90.645 122.757C90.5335 122.828 90.3703 122.886 90.1554 122.929C89.9405 122.976 89.7255 123 89.5106 123C89.033 123 88.6529 122.858 88.3703 122.574C88.0877 122.285 87.9464 121.835 87.9464 121.223V117.33H86.9255V116.466H87.9464V114.919H89.1226Z" fill="#999591"/>
<path d="M96.4898 118.48H95.6062L95.4152 117.71C95.2719 117.575 95.0908 117.469 94.8719 117.39C94.657 117.307 94.4122 117.265 94.1376 117.265C93.7196 117.265 93.4092 117.356 93.2062 117.538C93.0032 117.72 92.9017 117.939 92.9017 118.195C92.9017 118.448 92.9913 118.648 93.1704 118.794C93.3495 118.94 93.7137 119.07 94.2629 119.185C95.0789 119.359 95.6858 119.596 96.0839 119.896C96.4819 120.192 96.6809 120.591 96.6809 121.092C96.6809 121.661 96.448 122.121 95.9824 122.473C95.5207 122.824 94.9157 123 94.1674 123C93.6779 123 93.238 122.945 92.848 122.834C92.4579 122.72 92.1097 122.556 91.8032 122.342L91.7972 120.879H92.6808L92.9017 121.738C93.037 121.861 93.2201 121.95 93.451 122.005C93.6858 122.06 93.9246 122.088 94.1674 122.088C94.5853 122.088 94.9117 122.005 95.1465 121.839C95.3853 121.669 95.5047 121.448 95.5047 121.175C95.5047 120.919 95.4052 120.707 95.2062 120.541C95.0112 120.376 94.6391 120.231 94.0898 120.109C93.3057 119.939 92.7147 119.708 92.3166 119.416C91.9186 119.124 91.7196 118.729 91.7196 118.231C91.7196 117.71 91.9425 117.265 92.3883 116.898C92.838 116.531 93.4211 116.347 94.1376 116.347C94.6271 116.347 95.0669 116.41 95.457 116.537C95.847 116.663 96.1714 116.839 96.4301 117.064L96.4898 118.48Z" fill="#999591"/>
<path d="M100.735 120.553C100.735 120.071 100.874 119.651 101.153 119.291C101.435 118.928 101.855 118.565 102.412 118.201C102.102 117.81 101.871 117.463 101.72 117.159C101.569 116.851 101.493 116.535 101.493 116.211C101.493 115.543 101.686 115.03 102.072 114.67C102.462 114.307 102.997 114.125 103.678 114.125C104.307 114.125 104.818 114.305 105.212 114.665C105.606 115.024 105.803 115.456 105.803 115.962C105.803 116.349 105.698 116.685 105.487 116.969C105.28 117.25 104.972 117.538 104.562 117.834L103.911 118.308L105.941 120.731C106.104 120.474 106.231 120.19 106.323 119.878C106.414 119.566 106.46 119.236 106.46 118.889H107.511C107.511 119.406 107.433 119.886 107.278 120.328C107.123 120.771 106.898 121.167 106.603 121.519L107.708 122.846L107.696 122.876H106.329L105.821 122.271C105.503 122.508 105.151 122.69 104.765 122.816C104.379 122.939 103.979 123 103.565 123C102.701 123 102.012 122.773 101.499 122.319C100.989 121.865 100.735 121.276 100.735 120.553ZM103.565 122.088C103.851 122.088 104.134 122.04 104.412 121.946C104.691 121.847 104.954 121.707 105.2 121.525L103.045 118.948L102.806 119.12C102.444 119.388 102.203 119.645 102.084 119.89C101.969 120.135 101.911 120.356 101.911 120.553C101.911 121 102.052 121.367 102.335 121.655C102.617 121.944 103.027 122.088 103.565 122.088ZM102.669 116.199C102.669 116.408 102.723 116.627 102.83 116.857C102.938 117.082 103.099 117.328 103.314 117.597L104.138 117.034C104.365 116.884 104.518 116.722 104.597 116.548C104.681 116.371 104.723 116.175 104.723 115.962C104.723 115.721 104.625 115.508 104.43 115.322C104.239 115.136 103.988 115.044 103.678 115.044C103.356 115.044 103.107 115.156 102.932 115.381C102.757 115.603 102.669 115.875 102.669 116.199Z" fill="#999591"/>
<path d="M117.756 116.797H116.866L116.645 115.565C116.466 115.415 116.227 115.291 115.929 115.192C115.63 115.093 115.284 115.044 114.89 115.044C114.265 115.044 113.786 115.176 113.451 115.441C113.117 115.701 112.95 116.043 112.95 116.466C112.95 116.841 113.119 117.155 113.457 117.407C113.8 117.656 114.351 117.876 115.111 118.065C116.026 118.29 116.721 118.622 117.195 119.06C117.672 119.499 117.911 120.042 117.911 120.69C117.911 121.385 117.625 121.944 117.051 122.366C116.482 122.789 115.736 123 114.813 123C114.144 123 113.549 122.891 113.027 122.674C112.51 122.457 112.088 122.173 111.762 121.821V120.216H112.645L112.872 121.454C113.099 121.639 113.37 121.792 113.684 121.91C113.999 122.028 114.375 122.088 114.813 122.088C115.406 122.088 115.873 121.963 116.216 121.715C116.562 121.466 116.735 121.128 116.735 120.701C116.735 120.306 116.586 119.977 116.287 119.712C115.989 119.443 115.461 119.218 114.705 119.037C113.786 118.819 113.067 118.5 112.55 118.077C112.032 117.654 111.774 117.123 111.774 116.483C111.774 115.808 112.062 115.247 112.639 114.801C113.216 114.351 113.967 114.125 114.89 114.125C115.499 114.125 116.052 114.23 116.55 114.439C117.051 114.645 117.453 114.896 117.756 115.192V116.797Z" fill="#999591"/>
<path d="M118.86 122.129L119.834 121.963V114.552L118.86 114.386V113.634H121.01V117.319C121.233 117.011 121.505 116.772 121.828 116.602C122.15 116.432 122.508 116.347 122.902 116.347C123.595 116.347 124.132 116.552 124.514 116.963C124.896 117.374 125.087 118.006 125.087 118.859V121.963L126.06 122.129V122.876H122.938V122.129L123.911 121.963V118.847C123.911 118.318 123.796 117.927 123.565 117.674C123.338 117.421 122.998 117.295 122.544 117.295C122.222 117.295 121.927 117.372 121.66 117.526C121.398 117.676 121.181 117.881 121.01 118.142V121.963L121.983 122.129V122.876H118.86V122.129Z" fill="#999591"/>
<path d="M131.129 122.876C131.093 122.702 131.066 122.546 131.046 122.408C131.026 122.269 131.012 122.131 131.004 121.993C130.777 122.281 130.492 122.522 130.15 122.716C129.812 122.905 129.45 123 129.064 123C128.391 123 127.879 122.838 127.529 122.514C127.179 122.186 127.004 121.726 127.004 121.134C127.004 120.526 127.251 120.058 127.744 119.73C128.242 119.398 128.922 119.232 129.786 119.232H130.998V118.486C130.998 118.111 130.878 117.814 130.64 117.597C130.401 117.376 130.069 117.265 129.643 117.265C129.348 117.265 129.087 117.303 128.861 117.378C128.638 117.453 128.457 117.556 128.317 117.686L128.192 118.361H127.284V117.117C127.579 116.884 127.935 116.699 128.353 116.56C128.771 116.418 129.225 116.347 129.714 116.347C130.447 116.347 131.04 116.533 131.493 116.904C131.947 117.275 132.174 117.806 132.174 118.498V121.584C132.174 121.667 132.174 121.748 132.174 121.827C132.178 121.906 132.184 121.985 132.192 122.064L132.67 122.129V122.876H131.129ZM129.237 122.023C129.627 122.023 129.983 121.93 130.305 121.744C130.628 121.558 130.859 121.335 130.998 121.075V120.02H129.744C129.263 120.02 128.88 120.131 128.598 120.352C128.319 120.573 128.18 120.842 128.18 121.158C128.18 121.438 128.267 121.653 128.443 121.803C128.618 121.95 128.882 122.023 129.237 122.023Z" fill="#999591"/>
<path d="M135.768 117.218L134.992 117.336L136.323 120.986L136.431 121.448H136.467L136.58 120.986L137.87 117.336L137.088 117.218V116.466H139.583V117.218L139.052 117.307L136.885 122.876H135.995L133.804 117.307L133.273 117.218V116.466H135.768V117.218Z" fill="#999591"/>
<path d="M143.249 123C142.349 123 141.633 122.704 141.1 122.111C140.57 121.515 140.306 120.743 140.306 119.795V119.534C140.306 118.622 140.578 117.864 141.123 117.259C141.673 116.651 142.321 116.347 143.07 116.347C143.937 116.347 144.594 116.608 145.04 117.129C145.49 117.65 145.715 118.346 145.715 119.214V119.943H141.523L141.506 119.973C141.517 120.589 141.675 121.096 141.977 121.495C142.28 121.89 142.704 122.088 143.249 122.088C143.647 122.088 143.995 122.032 144.294 121.922C144.596 121.807 144.857 121.651 145.076 121.454L145.535 122.212C145.305 122.433 144.998 122.621 144.616 122.775C144.238 122.925 143.782 123 143.249 123ZM143.07 117.265C142.676 117.265 142.339 117.431 142.061 117.763C141.782 118.091 141.611 118.503 141.547 119.001L141.559 119.031H144.538V118.877C144.538 118.419 144.415 118.035 144.168 117.727C143.921 117.419 143.555 117.265 143.07 117.265Z" fill="#999591"/>
<path d="M151.822 118.48H150.939L150.747 117.71C150.604 117.575 150.423 117.469 150.204 117.39C149.989 117.307 149.744 117.265 149.47 117.265C149.052 117.265 148.741 117.356 148.538 117.538C148.335 117.72 148.234 117.939 148.234 118.195C148.234 118.448 148.324 118.648 148.503 118.794C148.682 118.94 149.046 119.07 149.595 119.185C150.411 119.359 151.018 119.596 151.416 119.896C151.814 120.192 152.013 120.591 152.013 121.092C152.013 121.661 151.78 122.121 151.315 122.473C150.853 122.824 150.248 123 149.5 123C149.01 123 148.57 122.945 148.18 122.834C147.79 122.72 147.442 122.556 147.135 122.342L147.13 120.879H148.013L148.234 121.738C148.369 121.861 148.552 121.95 148.783 122.005C149.018 122.06 149.257 122.088 149.5 122.088C149.918 122.088 150.244 122.005 150.479 121.839C150.718 121.669 150.837 121.448 150.837 121.175C150.837 120.919 150.738 120.707 150.539 120.541C150.343 120.376 149.971 120.231 149.422 120.109C148.638 119.939 148.047 119.708 147.649 119.416C147.251 119.124 147.052 118.729 147.052 118.231C147.052 117.71 147.275 117.265 147.721 116.898C148.17 116.531 148.753 116.347 149.47 116.347C149.959 116.347 150.399 116.41 150.789 116.537C151.179 116.663 151.504 116.839 151.762 117.064L151.822 118.48Z" fill="#999591"/>
<path d="M72.2861 14.8794L72.9309 14.7905L75.9697 7H76.9787L79.9638 14.7905L80.6026 14.8794V15.6259H78.1071V14.8794L78.7638 14.7668L78.1907 13.1791H74.71L74.1189 14.7668L74.7757 14.8794V15.6259H72.2861V14.8794ZM75.0742 12.2016H77.8324L76.4832 8.49886H76.4473L75.0742 12.2016Z" fill="#999591"/>
<path d="M82.9967 9.96811L82.2564 10.0984L83.0982 13.2917L83.2355 14.0678H83.2713L83.4385 13.2917L84.7281 9.21571H85.6714L86.9669 13.2917L87.152 14.1566H87.1878L87.361 13.2917L88.155 10.0984L87.4027 9.96811V9.21571H89.8625V9.96811L89.3013 10.051L87.6714 15.6259H86.7221L85.4684 11.7217L85.1997 10.6435L85.1639 10.6494L84.9132 11.7217L83.6833 15.6259H82.734L81.1041 10.051L80.537 9.96811V9.21571H82.9967V9.96811Z" fill="#999591"/>
<path d="M93.767 15.7503C92.8675 15.7503 92.1511 15.4541 91.6177 14.8616C91.0884 14.2652 90.8237 13.4931 90.8237 12.5452V12.2845C90.8237 11.3722 91.0963 10.6139 91.6416 10.0096C92.1909 9.40134 92.8397 9.09723 93.5879 9.09723C94.4556 9.09723 95.1123 9.3579 95.5581 9.87924C96.0079 10.4006 96.2327 11.0957 96.2327 11.9646V12.6933H92.0416L92.0237 12.7229C92.0357 13.3391 92.1929 13.8466 92.4954 14.2455C92.7979 14.6405 93.2218 14.8379 93.767 14.8379C94.1651 14.8379 94.5133 14.7826 94.8118 14.6721C95.1143 14.5575 95.375 14.4015 95.5939 14.204L96.0536 14.9623C95.8228 15.1835 95.5163 15.3711 95.1342 15.5252C94.7561 15.6752 94.3004 15.7503 93.767 15.7503ZM93.5879 10.0155C93.1939 10.0155 92.8576 10.1814 92.579 10.5131C92.3003 10.841 92.1292 11.2537 92.0655 11.7513L92.0775 11.781H95.0566V11.6269C95.0566 11.1688 94.9332 10.7857 94.6865 10.4776C94.4397 10.1695 94.0735 10.0155 93.5879 10.0155Z" fill="#999591"/>
<path d="M102.34 11.23H101.457L101.266 10.4598C101.122 10.3255 100.941 10.2189 100.722 10.1399C100.507 10.057 100.263 10.0155 99.988 10.0155C99.5701 10.0155 99.2597 10.1063 99.0567 10.288C98.8537 10.4697 98.7522 10.6889 98.7522 10.9456C98.7522 11.1984 98.8417 11.3979 99.0209 11.544C99.2 11.6901 99.5642 11.8205 100.113 11.935C100.929 12.1088 101.536 12.3458 101.934 12.6459C102.332 12.9421 102.531 13.341 102.531 13.8426C102.531 14.4114 102.299 14.8715 101.833 15.223C101.371 15.5745 100.766 15.7503 100.018 15.7503C99.5283 15.7503 99.0885 15.695 98.6985 15.5844C98.3084 15.4699 97.9601 15.306 97.6537 15.0927L97.6477 13.6294H98.5313L98.7522 14.4884C98.8875 14.6108 99.0706 14.6997 99.3015 14.755C99.5363 14.8103 99.7751 14.8379 100.018 14.8379C100.436 14.8379 100.762 14.755 100.997 14.5891C101.236 14.4193 101.355 14.1981 101.355 13.9256C101.355 13.6689 101.256 13.4576 101.057 13.2917C100.862 13.1258 100.49 12.9816 99.9403 12.8592C99.1562 12.6894 98.5651 12.4583 98.1671 12.166C97.7691 11.8738 97.5701 11.4788 97.5701 10.9812C97.5701 10.4598 97.793 10.0155 98.2388 9.64819C98.6885 9.28088 99.2716 9.09723 99.988 9.09723C100.478 9.09723 100.917 9.16042 101.307 9.28681C101.698 9.41319 102.022 9.58895 102.281 9.81407L102.34 11.23Z" fill="#999591"/>
<path d="M103.636 12.3616C103.636 11.4137 103.895 10.6336 104.412 10.0214C104.929 9.40529 105.632 9.09723 106.519 9.09723C107.411 9.09723 108.116 9.40332 108.633 10.0155C109.154 10.6277 109.415 11.4097 109.415 12.3616V12.4919C109.415 13.4477 109.156 14.2297 108.639 14.8379C108.122 15.4462 107.419 15.7503 106.531 15.7503C105.636 15.7503 104.929 15.4462 104.412 14.8379C103.895 14.2258 103.636 13.4437 103.636 12.4919V12.3616ZM104.812 12.4919C104.812 13.1712 104.955 13.7321 105.242 14.1744C105.532 14.6168 105.962 14.8379 106.531 14.8379C107.089 14.8379 107.513 14.6168 107.803 14.1744C108.094 13.7321 108.239 13.1712 108.239 12.4919V12.3616C108.239 11.6901 108.094 11.1313 107.803 10.685C107.513 10.2387 107.085 10.0155 106.519 10.0155C105.954 10.0155 105.528 10.2387 105.242 10.685C104.955 11.1313 104.812 11.6901 104.812 12.3616V12.4919Z" fill="#999591"/>
<path d="M110.263 14.8794L111.236 14.7135V10.134L110.263 9.96811V9.21571H112.293L112.37 10.051C112.577 9.74693 112.844 9.51193 113.17 9.34605C113.497 9.18017 113.875 9.09723 114.305 9.09723C114.735 9.09723 115.103 9.19597 115.409 9.39344C115.72 9.59092 115.952 9.88714 116.108 10.2821C116.311 9.91874 116.579 9.63042 116.914 9.41714C117.248 9.20386 117.638 9.09723 118.084 9.09723C118.745 9.09723 119.266 9.32235 119.648 9.7726C120.03 10.2189 120.221 10.8923 120.221 11.7928V14.7135L121.194 14.8794V15.6259H118.066V14.8794L119.039 14.7135V11.781C119.039 11.149 118.93 10.7027 118.711 10.4421C118.492 10.1774 118.167 10.0451 117.738 10.0451C117.328 10.0451 116.997 10.1893 116.747 10.4776C116.5 10.762 116.356 11.1214 116.317 11.5558V14.7135L117.29 14.8794V15.6259H114.167V14.8794L115.141 14.7135V11.781C115.141 11.1806 115.027 10.7422 114.8 10.4658C114.577 10.1853 114.253 10.0451 113.827 10.0451C113.469 10.0451 113.174 10.1182 112.943 10.2643C112.713 10.4105 112.536 10.6158 112.412 10.8805V14.7135L113.385 14.8794V15.6259H110.263V14.8794Z" fill="#999591"/>
<path d="M124.944 15.7503C124.044 15.7503 123.328 15.4541 122.794 14.8616C122.265 14.2652 122 13.4931 122 12.5452V12.2845C122 11.3722 122.273 10.6139 122.818 10.0096C123.368 9.40134 124.016 9.09723 124.765 9.09723C125.632 9.09723 126.289 9.3579 126.735 9.87924C127.185 10.4006 127.409 11.0957 127.409 11.9646V12.6933H123.218L123.2 12.7229C123.212 13.3391 123.37 13.8466 123.672 14.2455C123.975 14.6405 124.398 14.8379 124.944 14.8379C125.342 14.8379 125.69 14.7826 125.988 14.6721C126.291 14.5575 126.552 14.4015 126.771 14.204L127.23 14.9623C126.999 15.1835 126.693 15.3711 126.311 15.5252C125.933 15.6752 125.477 15.7503 124.944 15.7503ZM124.765 10.0155C124.371 10.0155 124.034 10.1814 123.756 10.5131C123.477 10.841 123.306 11.2537 123.242 11.7513L123.254 11.781H126.233V11.6269C126.233 11.1688 126.11 10.7857 125.863 10.4776C125.616 10.1695 125.25 10.0155 124.765 10.0155Z" fill="#999591"/>
<rect y="98.8242" width="200" height="1.7333" fill="#FF9000"/>
<rect y="29.4923" width="200" height="1.7333" fill="#FF9000"/>
<path d="M46.3228 63.0974V75.2791C46.3228 76.3144 46.1109 77.3013 45.687 78.2396C45.2957 79.1455 44.7578 79.9382 44.073 80.6176C43.3883 81.2971 42.5732 81.831 41.6276 82.2192C40.7147 82.6398 39.7365 82.8501 38.6931 82.8501C37.6498 82.8501 36.6716 82.656 35.7586 82.2677C34.8457 81.8795 34.0468 81.3618 33.3621 80.7147C32.6774 80.0353 32.1231 79.2587 31.6992 78.3852C31.308 77.4792 31.096 76.5086 31.0634 75.4732V66.4947C30.9656 65.4917 30.5091 64.7637 29.694 64.3108C30.1505 64.0843 30.607 63.971 31.0634 63.971V52.5174C31.096 51.482 31.308 50.5114 31.6992 49.6054C32.1231 48.6995 32.6774 47.923 33.3621 47.2759C34.0468 46.5964 34.8457 46.0626 35.7586 45.6743C36.6716 45.286 37.6498 45.0919 38.6931 45.0919C39.7365 45.0919 40.7147 45.3022 41.6276 45.7228C42.5732 46.1111 43.3883 46.645 44.073 47.3244C44.7578 48.0039 45.2957 48.8127 45.687 49.751C46.1109 50.657 46.3228 51.6438 46.3228 52.7115C46.3228 53.2615 46.3717 53.666 46.4695 53.9248C46.6 54.1837 46.7304 54.394 46.8608 54.5557C46.9912 54.7175 47.1054 54.8631 47.2032 54.9925C47.3336 55.122 47.3988 55.3323 47.3988 55.6235H44.8556C44.3339 55.5587 44.073 55.2837 44.073 54.7984C44.073 55.2837 43.8122 55.5587 43.2905 55.6235H40.6984C40.6984 55.3323 40.7473 55.122 40.8451 54.9925C40.9755 54.8631 41.1059 54.7175 41.2364 54.5557C41.3668 54.394 41.4809 54.1837 41.5787 53.9248C41.7091 53.666 41.7744 53.2454 41.7744 52.663V52.6144C41.7744 52.1938 41.758 51.6923 41.7254 51.1099C41.6928 50.4952 41.5787 49.9128 41.3831 49.3628C41.1875 48.8127 40.8777 48.3436 40.4538 47.9553C40.03 47.5671 39.4431 47.3729 38.6931 47.3729C37.9106 47.3729 37.3074 47.5833 36.8835 48.0039C36.4923 48.3921 36.1988 48.8613 36.0032 49.4113C35.8075 49.9613 35.6934 50.5437 35.6608 51.1585C35.6282 51.7732 35.6119 52.2909 35.6119 52.7115V63.971C36.0684 63.971 36.5249 64.0843 36.9813 64.3108C36.1662 64.7637 35.7097 65.4917 35.6119 66.4947V75.2791C35.6119 75.6997 35.6282 76.2174 35.6608 76.8321C35.6934 77.4145 35.8075 77.9969 36.0032 78.5793C36.1988 79.1293 36.4923 79.5985 36.8835 79.9867C37.3074 80.375 37.9106 80.5691 38.6931 80.5691C39.4757 80.5691 40.0626 80.375 40.4538 79.9867C40.8777 79.5985 41.1875 79.1293 41.3831 78.5793C41.5787 77.9969 41.6928 77.4145 41.7254 76.8321C41.758 76.2174 41.7744 75.6997 41.7744 75.2791V65.3299C41.4157 65.3623 41.1059 65.5079 40.8451 65.7667C40.6169 66.0256 40.5027 66.3329 40.5027 66.6888V66.7374C40.4701 67.2227 40.3397 67.6433 40.1115 67.9992C39.9158 68.3228 39.6224 68.614 39.2311 68.8728C38.8399 69.0993 38.2693 69.2125 37.5193 69.2125V63.0974H46.3228ZM33.7045 61.69C33.7045 61.4959 33.6882 61.3017 33.6556 61.1076C33.6556 60.9135 33.6556 60.7355 33.6556 60.5738V59.4575C33.623 58.7457 33.6067 58.0663 33.6067 57.4192C33.6067 56.7721 33.5904 56.1573 33.5578 55.5749C33.5252 55.2837 33.5088 55.0249 33.5088 54.7984C33.5088 54.5396 33.4925 54.2807 33.4599 54.0219C33.4599 53.7954 33.4436 53.5851 33.411 53.391C33.411 53.1645 33.411 52.9703 33.411 52.8086C33.411 52.6468 33.3947 52.5012 33.3621 52.3718C33.3621 52.2424 33.3621 52.1291 33.3621 52.0321V51.7894C33.3295 51.7894 33.3132 51.8056 33.3132 51.8379V52.0321C33.3132 52.1291 33.2969 52.2424 33.2643 52.3718C33.2643 52.5012 33.2643 52.6468 33.2643 52.8086C33.2643 52.9703 33.248 53.1645 33.2154 53.391C33.2154 53.5851 33.2154 53.7954 33.2154 54.0219C33.1828 54.2807 33.1665 54.5396 33.1665 54.7984C33.1665 55.0249 33.1502 55.2837 33.1176 55.5749C33.085 56.1573 33.0687 56.7721 33.0687 57.4192C33.0687 58.0663 33.0524 58.7457 33.0198 59.4575V60.5738C33.0198 60.7355 33.0035 60.9135 32.9709 61.1076C32.9709 61.3017 32.9709 61.4959 32.9709 61.69V66.2035C32.9709 66.3006 32.9709 66.3976 32.9709 66.4947C33.0035 66.5918 33.0198 66.6727 33.0198 66.7374V68.3875C33.0198 68.7434 33.0198 69.0993 33.0198 69.4552C33.0524 69.7787 33.0687 70.1023 33.0687 70.4258C33.0687 70.7817 33.0687 71.1215 33.0687 71.445C33.1013 71.7362 33.1176 72.0112 33.1176 72.2701C33.1502 72.5613 33.1665 72.8363 33.1665 73.0951C33.1665 73.354 33.1828 73.5966 33.2154 73.8231C33.2154 74.0819 33.2154 74.3084 33.2154 74.5026C33.248 74.6967 33.2643 74.8746 33.2643 75.0364C33.2643 75.1982 33.2643 75.3438 33.2643 75.4732C33.2969 75.6026 33.3132 75.7159 33.3132 75.8129V76.0556C33.3132 76.088 33.3295 76.1041 33.3621 76.1041V75.8129C33.3621 75.7159 33.3621 75.6026 33.3621 75.4732C33.3947 75.3438 33.411 75.1982 33.411 75.0364C33.411 74.8746 33.411 74.6967 33.411 74.5026C33.4436 74.3084 33.4599 74.0819 33.4599 73.8231C33.4925 73.5966 33.5088 73.354 33.5088 73.0951C33.5088 72.8363 33.5252 72.5613 33.5578 72.2701C33.5578 72.0112 33.5578 71.7362 33.5578 71.445C33.5904 71.1215 33.6067 70.7817 33.6067 70.4258C33.6067 70.1023 33.6067 69.7787 33.6067 69.4552C33.6393 69.0993 33.6556 68.7434 33.6556 68.3875V67.3198C33.6556 67.0609 33.6719 66.8668 33.7045 66.7374V61.69ZM44.3665 68.7272C44.3339 68.4037 44.3176 68.1125 44.3176 67.8536C44.3176 67.5624 44.3013 67.2874 44.2687 67.0286C44.2361 66.5432 44.1872 66.1388 44.1219 65.8153C44.1219 65.7505 44.1056 65.6858 44.073 65.6211C44.073 65.5564 44.073 65.5079 44.073 65.4755V65.3299L44.0241 65.3785V65.4755C44.0241 65.5079 44.0078 65.5564 43.9752 65.6211C43.9752 65.6858 43.9752 65.7505 43.9752 65.8153C43.91 66.1388 43.8611 66.5432 43.8285 67.0286C43.7959 67.2874 43.7796 67.5624 43.7796 67.8536C43.7796 68.1125 43.7633 68.4037 43.7307 68.7272V69.2125C43.7307 69.3096 43.7144 69.4067 43.6818 69.5037C43.6818 69.5684 43.6818 69.6331 43.6818 69.6979V71.7362C43.6818 71.8333 43.6981 71.9142 43.7307 71.9789V72.7069C43.7307 72.8686 43.7307 73.0142 43.7307 73.1437C43.7633 73.2731 43.7796 73.4187 43.7796 73.5804C43.7796 73.7422 43.7796 73.8878 43.7796 74.0172C43.8122 74.1467 43.8285 74.2761 43.8285 74.4055C43.8611 74.5349 43.8774 74.6643 43.8774 74.7938C43.8774 74.8908 43.8937 74.9879 43.9263 75.0849C43.9263 75.182 43.9263 75.2791 43.9263 75.3761C43.9589 75.4732 43.9752 75.5541 43.9752 75.6188C43.9752 75.6835 43.9752 75.7482 43.9752 75.8129C44.0078 75.8776 44.0241 75.9262 44.0241 75.9585V76.0556C44.0241 76.088 44.0404 76.1041 44.073 76.1041V75.9585C44.073 75.9262 44.073 75.8776 44.073 75.8129C44.1056 75.7482 44.1219 75.6835 44.1219 75.6188C44.1219 75.5541 44.1219 75.4732 44.1219 75.3761C44.1546 75.2791 44.1709 75.182 44.1709 75.0849C44.2035 74.9879 44.2198 74.8908 44.2198 74.7938C44.2198 74.6643 44.2361 74.5349 44.2687 74.4055C44.2687 74.2761 44.2687 74.1467 44.2687 74.0172C44.3013 73.8878 44.3176 73.7422 44.3176 73.5804C44.3176 73.4187 44.3176 73.2731 44.3176 73.1437C44.3502 73.0142 44.3665 72.8686 44.3665 72.7069V72.2215C44.3665 72.0921 44.3828 72.0112 44.4154 71.9789V69.6979C44.4154 69.6331 44.3991 69.5684 44.3665 69.5037C44.3665 69.4067 44.3665 69.3096 44.3665 69.2125V68.7272Z" fill="#F4EDE8"/>
<path d="M64.0903 64.0196C64.6446 64.0196 65.1011 64.1328 65.4597 64.3593C65.1011 64.5858 64.7913 64.8931 64.5305 65.2814C64.3022 65.6697 64.1555 66.0903 64.0903 66.5432V73.8716C64.0577 74.907 63.8294 75.8776 63.4056 76.7836C63.0143 77.6572 62.4763 78.4337 61.7916 79.1131C61.1069 79.7602 60.3081 80.2779 59.3951 80.6662C58.4821 81.0544 57.504 81.2486 56.4606 81.2486C55.4172 81.2486 54.4391 81.0544 53.5261 80.6662C52.6131 80.2779 51.8143 79.7602 51.1296 79.1131C50.4449 78.4337 49.8906 77.6572 49.4667 76.7836C49.0754 75.8776 48.8635 74.907 48.8309 73.8716V66.5432C48.7331 65.5402 48.2766 64.8123 47.4615 64.3593C47.8201 64.1328 48.2766 64.0196 48.8309 64.0196V54.6528C48.8635 53.6498 49.0754 52.6953 49.4667 51.7894C49.8906 50.8835 50.4449 50.1069 51.1296 49.4598C51.8143 48.7804 52.6131 48.2465 53.5261 47.8583C54.4391 47.47 55.4172 47.2759 56.4606 47.2759C57.504 47.2759 58.4821 47.47 59.3951 47.8583C60.3081 48.2465 61.1069 48.7804 61.7916 49.4598C62.4763 50.1069 63.0143 50.8835 63.4056 51.7894C63.8294 52.6953 64.0577 53.6498 64.0903 54.6528V64.0196ZM51.472 62.2724C51.472 62.1106 51.4556 61.965 51.423 61.8356C51.423 61.6738 51.423 61.5121 51.423 61.3503V60.4282C51.3904 59.8134 51.3741 59.231 51.3741 58.681C51.3741 58.131 51.3578 57.6133 51.3252 57.128C51.2926 56.9015 51.2763 56.675 51.2763 56.4485C51.2763 56.222 51.26 56.0117 51.2274 55.8176C51.2274 55.6235 51.2111 55.4455 51.1785 55.2837C51.1785 55.122 51.1785 54.9764 51.1785 54.8469C51.1785 54.6852 51.1622 54.5557 51.1296 54.4587C51.1296 54.3293 51.1296 54.2322 51.1296 54.1675V53.9248C51.097 53.9248 51.0807 53.941 51.0807 53.9734V54.1675C51.0807 54.2322 51.0644 54.3293 51.0318 54.4587C51.0318 54.5557 51.0318 54.6852 51.0318 54.8469C51.0318 54.9764 51.0155 55.122 50.9829 55.2837C50.9829 55.4455 50.9829 55.6235 50.9829 55.8176C50.9503 56.0117 50.934 56.222 50.934 56.4485C50.934 56.675 50.9177 56.9015 50.8851 57.128C50.8524 57.6133 50.8361 58.131 50.8361 58.681C50.8361 59.231 50.8198 59.8134 50.7872 60.4282V61.3503C50.7872 61.5121 50.7709 61.6738 50.7383 61.8356C50.7383 61.965 50.7383 62.1106 50.7383 62.2724V66.1065C50.7383 66.3329 50.7546 66.4947 50.7872 66.5918V67.9992C50.7872 68.2904 50.7872 68.5816 50.7872 68.8728C50.8198 69.164 50.8361 69.439 50.8361 69.6979C50.8361 69.989 50.8361 70.2641 50.8361 70.5229C50.8687 70.7494 50.8851 70.992 50.8851 71.2509C50.9177 71.5097 50.934 71.7524 50.934 71.9789C50.934 72.173 50.9503 72.3671 50.9829 72.5613C50.9829 72.7554 50.9829 72.9333 50.9829 73.0951C51.0155 73.2569 51.0318 73.4187 51.0318 73.5804C51.0318 73.7422 51.0318 73.8878 51.0318 74.0172C51.0644 74.1143 51.0807 74.1952 51.0807 74.2599V74.4055C51.0807 74.4379 51.097 74.454 51.1296 74.454V74.2599C51.1296 74.1952 51.1296 74.1143 51.1296 74.0172C51.1622 73.8878 51.1785 73.7422 51.1785 73.5804C51.1785 73.4187 51.1785 73.2569 51.1785 73.0951C51.2111 72.9333 51.2274 72.7554 51.2274 72.5613C51.26 72.3671 51.2763 72.173 51.2763 71.9789C51.2763 71.7524 51.2926 71.5097 51.3252 71.2509C51.3252 70.992 51.3252 70.7494 51.3252 70.5229C51.3578 70.2641 51.3741 69.989 51.3741 69.6979C51.3741 69.439 51.3741 69.164 51.3741 68.8728C51.4067 68.5816 51.423 68.2904 51.423 67.9992V66.5918C51.4556 66.4947 51.472 66.3329 51.472 66.1065V62.2724ZM59.5418 54.8469C59.5418 54.4263 59.5255 53.9086 59.4929 53.2939C59.4603 52.6792 59.3462 52.0968 59.1506 51.5467C58.9549 50.9967 58.6452 50.5276 58.2213 50.1393C57.83 49.7187 57.2431 49.5084 56.4606 49.5084C55.6781 49.5084 55.0749 49.7187 54.651 50.1393C54.2597 50.5276 53.9663 50.9967 53.7706 51.5467C53.575 52.0968 53.4609 52.6792 53.4283 53.2939C53.3957 53.9086 53.3794 54.4263 53.3794 54.8469V64.0196C53.9337 64.0196 54.3901 64.1328 54.7488 64.3593C53.9337 64.8123 53.4772 65.5402 53.3794 66.5432V73.6775C53.3794 74.0981 53.3957 74.6158 53.4283 75.2305C53.4609 75.8129 53.575 76.3953 53.7706 76.9777C53.9663 77.5277 54.2597 77.9969 54.651 78.3852C55.0749 78.7734 55.6781 78.9675 56.4606 78.9675C57.2431 78.9675 57.83 78.7734 58.2213 78.3852C58.6452 77.9969 58.9549 77.5277 59.1506 76.9777C59.3462 76.3953 59.4603 75.8129 59.4929 75.2305C59.5255 74.6158 59.5418 74.0981 59.5418 73.6775V66.5432C59.4766 65.5726 59.0201 64.8446 58.1724 64.3593C58.531 64.1328 58.9875 64.0196 59.5418 64.0196V54.8469ZM62.1829 62.2724C62.1829 62.1106 62.1829 61.965 62.1829 61.8356C62.1829 61.6738 62.1666 61.5121 62.134 61.3503V60.4282C62.134 59.8134 62.1177 59.231 62.0851 58.681C62.0851 58.131 62.0687 57.6133 62.0361 57.128C62.0035 56.9015 61.9872 56.675 61.9872 56.4485C61.9872 56.222 61.9709 56.0117 61.9383 55.8176C61.9383 55.6235 61.922 55.4455 61.8894 55.2837C61.8894 55.122 61.8894 54.9764 61.8894 54.8469C61.8894 54.6852 61.8731 54.5557 61.8405 54.4587C61.8405 54.3293 61.8405 54.2322 61.8405 54.1675V53.9248C61.8079 53.9248 61.7916 53.941 61.7916 53.9734V54.1675C61.7916 54.2322 61.7916 54.3293 61.7916 54.4587C61.7916 54.5557 61.7753 54.6852 61.7427 54.8469C61.7427 54.9764 61.7264 55.122 61.6938 55.2837C61.6938 55.4455 61.6938 55.6235 61.6938 55.8176C61.6612 56.0117 61.6449 56.222 61.6449 56.4485C61.6449 56.675 61.6286 56.9015 61.596 57.128C61.5634 57.6133 61.5471 58.131 61.5471 58.681C61.5471 59.231 61.5308 59.8134 61.4982 60.4282V62.2724C61.4655 62.5959 61.4492 62.9195 61.4492 63.243C61.4492 63.5666 61.4492 63.8901 61.4492 64.2137C61.4492 64.5372 61.4492 64.8608 61.4492 65.1843C61.4492 65.4755 61.4655 65.7829 61.4982 66.1065V67.9992C61.4982 68.2904 61.4982 68.5816 61.4982 68.8728C61.5308 69.164 61.5471 69.439 61.5471 69.6979C61.5471 69.989 61.5471 70.2641 61.5471 70.5229C61.5797 70.7494 61.596 70.992 61.596 71.2509C61.6286 71.5097 61.6449 71.7524 61.6449 71.9789C61.6449 72.173 61.6612 72.3671 61.6938 72.5613C61.6938 72.7554 61.6938 72.9333 61.6938 73.0951C61.7264 73.2569 61.7427 73.4187 61.7427 73.5804C61.7753 73.7422 61.7916 73.8878 61.7916 74.0172C61.7916 74.1143 61.7916 74.1952 61.7916 74.2599V74.4055C61.7916 74.4379 61.8079 74.454 61.8405 74.454V74.2599C61.8405 74.1952 61.8405 74.1143 61.8405 74.0172C61.8731 73.8878 61.8894 73.7422 61.8894 73.5804C61.8894 73.4187 61.8894 73.2569 61.8894 73.0951C61.922 72.9333 61.9383 72.7554 61.9383 72.5613C61.9709 72.3671 61.9872 72.173 61.9872 71.9789C61.9872 71.7524 62.0035 71.5097 62.0361 71.2509C62.0361 70.992 62.0361 70.7494 62.0361 70.5229C62.0687 70.2641 62.0851 69.989 62.0851 69.6979C62.0851 69.439 62.0851 69.164 62.0851 68.8728C62.1177 68.5816 62.134 68.2904 62.134 67.9992V67.0771C62.134 67.0124 62.134 66.9315 62.134 66.8344C62.1666 66.7374 62.1829 66.6565 62.1829 66.5918V62.2724Z" fill="#F4EDE8"/>
<path d="M82.2399 57.7589C82.2399 59.2149 81.8812 60.5252 81.1639 61.69C80.4466 62.8548 79.4847 63.7607 78.2783 64.4078C78.8652 64.8608 79.4032 65.3946 79.8923 66.0094C80.3813 66.5918 80.7889 67.2389 81.115 67.9507C81.4736 68.6625 81.7508 69.3905 81.9464 70.1346C82.142 70.8788 82.2399 71.6068 82.2399 72.3186V75.4247C82.2073 76.46 81.9953 77.4307 81.604 78.3366C81.2128 79.2102 80.6748 79.9867 79.9901 80.6662C79.3054 81.3133 78.5065 81.831 77.5936 82.2192C76.6806 82.6398 75.7024 82.8501 74.6591 82.8501H70.0617C69.8335 82.8501 69.6378 82.7692 69.4748 82.6075C69.3444 82.4457 69.2792 82.2516 69.2792 82.0251C69.2792 82.2516 69.1976 82.4457 69.0346 82.6075C68.8716 82.7692 68.6923 82.8501 68.4966 82.8501H65.9045C65.9045 82.5589 65.9534 82.3486 66.0512 82.2192C66.1816 82.0898 66.3121 81.9442 66.4425 81.7824C66.5729 81.653 66.687 81.4589 66.7848 81.2C66.9153 80.9412 66.9805 80.5368 66.9805 79.9867V66.4462C66.8827 65.4755 66.4262 64.7637 65.611 64.3108C66.0349 64.0519 66.4914 63.9225 66.9805 63.9225V47.9553C66.9805 47.4053 66.9153 47.0009 66.7848 46.742C66.687 46.4832 66.5729 46.2891 66.4425 46.1596C66.3121 45.9979 66.1816 45.8523 66.0512 45.7228C65.9534 45.5934 65.9045 45.3831 65.9045 45.0919H68.4966C68.6923 45.0919 68.8716 45.1728 69.0346 45.3346C69.1976 45.464 69.2792 45.642 69.2792 45.8684C69.2792 45.3508 69.54 45.0919 70.0617 45.0919H74.6591C75.7024 45.0919 76.6806 45.286 77.5936 45.6743C78.5065 46.0626 79.3054 46.5964 79.9901 47.2759C80.6748 47.923 81.2128 48.6995 81.604 49.6054C81.9953 50.5114 82.2073 51.4658 82.2399 52.4688V57.7589ZM69.6215 61.3503C69.6215 61.1238 69.6052 60.9135 69.5726 60.7194C69.5726 60.4929 69.5726 60.2826 69.5726 60.0884V58.8266C69.54 57.9854 69.5237 57.1927 69.5237 56.4485C69.5237 55.7043 69.5074 55.0087 69.4748 54.3616C69.4422 54.0057 69.4259 53.6822 69.4259 53.391C69.4259 53.0998 69.4096 52.8248 69.377 52.5659C69.377 52.3071 69.3607 52.0644 69.3281 51.8379C69.3281 51.5791 69.3281 51.3688 69.3281 51.207C69.3281 51.0129 69.3118 50.8349 69.2792 50.6731C69.2792 50.5114 69.2792 50.382 69.2792 50.2849V49.9937C69.2466 50.026 69.2303 50.0584 69.2303 50.0908V50.2849C69.2303 50.382 69.2139 50.5114 69.1813 50.6731C69.1813 50.8349 69.1813 51.0129 69.1813 51.207C69.1813 51.3688 69.165 51.5791 69.1324 51.8379C69.1324 52.0644 69.1324 52.3071 69.1324 52.5659C69.0998 52.8248 69.0835 53.0998 69.0835 53.391C69.0835 53.6822 69.0672 54.0057 69.0346 54.3616C69.002 55.0087 68.9857 55.7043 68.9857 56.4485C68.9857 57.1927 68.9694 57.9854 68.9368 58.8266V60.0884C68.9368 60.2826 68.9368 60.4929 68.9368 60.7194C68.9368 60.9135 68.9205 61.1238 68.8879 61.3503V66.5432C68.8879 66.6727 68.8879 66.7859 68.8879 66.883C68.9205 66.98 68.9368 67.0933 68.9368 67.2227V69.0669C68.9368 69.4875 68.9368 69.9082 68.9368 70.3288C68.9694 70.717 68.9857 71.0891 68.9857 71.445C68.9857 71.8009 68.9857 72.1568 68.9857 72.5127C69.0183 72.8686 69.0346 73.2245 69.0346 73.5804C69.0672 73.7422 69.0835 73.904 69.0835 74.0658C69.0835 74.1952 69.0835 74.3408 69.0835 74.5026C69.0835 74.6643 69.0835 74.8099 69.0835 74.9394C69.1161 75.0688 69.1324 75.1982 69.1324 75.3276C69.1324 75.5865 69.1324 75.8453 69.1324 76.1041C69.165 76.3306 69.1813 76.5409 69.1813 76.7351C69.1813 76.9292 69.1813 77.1071 69.1813 77.2689C69.2139 77.3983 69.2303 77.5116 69.2303 77.6086V77.8513C69.2303 77.8837 69.2466 77.916 69.2792 77.9484V77.6086C69.2792 77.5116 69.2792 77.3983 69.2792 77.2689C69.3118 77.1071 69.3281 76.9292 69.3281 76.7351C69.3281 76.5409 69.3281 76.3306 69.3281 76.1041C69.3607 75.8453 69.377 75.5865 69.377 75.3276C69.4096 75.1982 69.4259 75.0688 69.4259 74.9394C69.4259 74.8099 69.4259 74.6643 69.4259 74.5026C69.4259 74.3408 69.4259 74.1952 69.4259 74.0658C69.4585 73.904 69.4748 73.7422 69.4748 73.5804C69.4748 73.2245 69.4748 72.8686 69.4748 72.5127C69.5074 72.1568 69.5237 71.8009 69.5237 71.445C69.5237 71.0891 69.5237 70.717 69.5237 70.3288C69.5563 69.9082 69.5726 69.4875 69.5726 69.0669V67.8536C69.5726 67.5624 69.5889 67.3521 69.6215 67.2227V61.3503ZM79.6966 74.454C79.664 74.5511 79.6477 74.7129 79.6477 74.9394V75.8129C79.6477 75.9747 79.6314 76.1203 79.5988 76.2497C79.5988 76.3791 79.5988 76.5086 79.5988 76.638C79.5988 76.7674 79.5825 76.8807 79.5499 76.9777C79.5499 77.0748 79.5499 77.1718 79.5499 77.2689V77.4145C79.5173 77.4469 79.501 77.4954 79.501 77.5601V77.8028C79.4684 77.8351 79.4521 77.8675 79.4521 77.8998V77.9969C79.4521 78.0292 79.4358 78.0616 79.4032 78.094C79.4032 78.094 79.4032 78.1101 79.4032 78.1425C79.4032 78.1748 79.3869 78.2072 79.3543 78.2396H79.4032C79.4032 78.2396 79.4195 78.2072 79.4521 78.1425C79.4521 78.1425 79.4684 78.1101 79.501 78.0454C79.5336 78.0131 79.5499 77.9807 79.5499 77.9484C79.5825 77.916 79.5988 77.8837 79.5988 77.8513C79.6314 77.8189 79.6477 77.7866 79.6477 77.7542C79.6803 77.7219 79.6966 77.6733 79.6966 77.6086C79.7618 77.5439 79.7944 77.463 79.7944 77.366C79.8597 77.2366 79.9249 77.0101 79.9901 76.6865C80.0553 76.4924 80.0879 76.363 80.0879 76.2983C80.1205 76.2336 80.1368 76.1688 80.1368 76.1041C80.1368 76.0071 80.1531 75.9262 80.1857 75.8615C80.1857 75.7968 80.1857 75.732 80.1857 75.6673C80.2183 75.5703 80.2346 75.4894 80.2346 75.4247C80.2672 75.3276 80.2835 75.182 80.2835 74.9879C80.3161 74.8261 80.3324 74.6643 80.3324 74.5026C80.3324 74.3408 80.3487 74.179 80.3813 74.0172V71.9789C80.3813 71.8171 80.365 71.6553 80.3324 71.4936C80.3324 71.3318 80.3161 71.17 80.2835 71.0082C80.2835 70.8141 80.2672 70.6685 80.2346 70.5714C80.2346 70.5067 80.2183 70.442 80.1857 70.3773C80.1857 70.2802 80.1857 70.1994 80.1857 70.1346C80.1531 70.0699 80.1368 70.0052 80.1368 69.9405C80.1368 69.8434 80.1205 69.7626 80.0879 69.6979C80.0879 69.6331 80.0716 69.5684 80.039 69.5037C80.039 69.439 80.039 69.3743 80.039 69.3096C79.9738 69.1155 79.9412 69.0022 79.9412 68.9699C79.9086 68.8728 79.8597 68.7596 79.7944 68.6301C79.7944 68.5331 79.7618 68.4522 79.6966 68.3875C79.6966 68.2904 79.664 68.2095 79.5988 68.1448C79.5336 68.0154 79.4847 67.9183 79.4521 67.8536C79.4195 67.8213 79.4032 67.7889 79.4032 67.7566H79.3543C79.3543 67.7566 79.3706 67.7889 79.4032 67.8536C79.4032 67.886 79.4032 67.9183 79.4032 67.9507C79.4358 67.9507 79.4521 67.9669 79.4521 67.9992C79.4521 68.0639 79.4684 68.1286 79.501 68.1933V68.436C79.5336 68.5007 79.5499 68.5816 79.5499 68.6787C79.5499 68.8404 79.5662 68.9537 79.5988 69.0184V69.3581C79.6314 69.4875 79.6477 69.617 79.6477 69.7464C79.6477 69.8758 79.6477 70.0214 79.6477 70.1832V70.62C79.6477 70.6847 79.6477 70.7656 79.6477 70.8626C79.6803 70.9273 79.6966 70.9921 79.6966 71.0568V74.454ZM77.6914 72.3186C77.6914 71.898 77.6751 71.2994 77.6425 70.5229C77.6099 69.7464 77.4958 68.9699 77.3001 68.1933C77.1045 67.4168 76.7947 66.7536 76.3709 66.2035C75.9796 65.6211 75.3927 65.3299 74.6102 65.3299H72.8495C72.4908 65.3299 72.181 65.4594 71.9202 65.7182C71.6594 65.977 71.5289 66.2844 71.5289 66.6403V79.2587C71.5289 79.6146 71.6594 79.922 71.9202 80.1809C72.181 80.4073 72.4908 80.5368 72.8495 80.5691H74.6102C75.3927 80.5691 75.9796 80.375 76.3709 79.9867C76.7947 79.5661 77.1045 79.0808 77.3001 78.5308C77.4958 77.9807 77.6099 77.3983 77.6425 76.7836C77.6751 76.1688 77.6914 75.6512 77.6914 75.2305V72.3186ZM77.6914 52.663C77.6914 52.2424 77.6751 51.7409 77.6425 51.1585C77.6099 50.5437 77.4958 49.9613 77.3001 49.4113C77.1045 48.8613 76.7947 48.3921 76.3709 48.0039C75.9796 47.5833 75.3927 47.3729 74.6102 47.3729H72.8495C72.4908 47.3729 72.181 47.5024 71.9202 47.7612C71.6594 48.02 71.5289 48.3274 71.5289 48.6833V61.7385C71.5289 62.0944 71.6594 62.4018 71.9202 62.6607C72.181 62.9195 72.4908 63.0489 72.8495 63.0489H74.6102C75.3927 63.0489 75.9796 62.8548 76.3709 62.4665C76.7947 62.0783 77.1045 61.6091 77.3001 61.0591C77.4958 60.4767 77.6099 59.8943 77.6425 59.3119C77.6751 58.6972 77.6914 58.1795 77.6914 57.7589V52.663ZM79.8923 59.0693C79.9575 58.8751 79.9901 58.7457 79.9901 58.681C80.0553 58.5516 80.0879 58.4222 80.0879 58.2927C80.1205 58.228 80.1368 58.1633 80.1368 58.0986C80.1368 58.0015 80.1531 57.9207 80.1857 57.8559C80.1857 57.7912 80.1857 57.7265 80.1857 57.6618C80.2183 57.5647 80.2346 57.4677 80.2346 57.3706C80.2672 57.2736 80.2835 57.1118 80.2835 56.8853C80.3161 56.7235 80.3324 56.5617 80.3324 56.4C80.3324 56.2382 80.3487 56.0764 80.3813 55.9146V54.8469C80.3813 54.491 80.3813 54.1513 80.3813 53.8278C80.3813 53.4718 80.365 53.1321 80.3324 52.8086C80.2998 52.7115 80.2835 52.6306 80.2835 52.5659C80.2835 52.4688 80.2672 52.388 80.2346 52.3233C80.2346 52.0968 80.2183 51.935 80.1857 51.8379C80.1531 51.6762 80.1205 51.5306 80.0879 51.4011C80.0879 51.2717 80.0716 51.1423 80.039 51.0129C79.9738 50.8187 79.9412 50.6893 79.9412 50.6246C79.876 50.4952 79.8434 50.3981 79.8434 50.3334C79.7781 50.204 79.7292 50.1069 79.6966 50.0422C79.6966 49.9452 79.664 49.8643 79.5988 49.7996C79.5662 49.7025 79.5173 49.5893 79.4521 49.4598L79.3543 49.3628V49.4113C79.3543 49.4437 79.3543 49.4598 79.3543 49.4598C79.3869 49.4598 79.4032 49.476 79.4032 49.5084C79.4358 49.5407 79.4521 49.5893 79.4521 49.654C79.4521 49.7187 79.4684 49.7834 79.501 49.8481V50.0908C79.5336 50.1555 79.5499 50.2525 79.5499 50.382C79.5499 50.4467 79.5499 50.5114 79.5499 50.5761C79.5825 50.6084 79.5988 50.657 79.5988 50.7217V51.0614C79.6314 51.1908 79.6477 51.3202 79.6477 51.4497C79.6477 51.5791 79.6477 51.7247 79.6477 51.8865V52.3718C79.6477 52.4365 79.6477 52.5174 79.6477 52.6144C79.6803 52.6792 79.6966 52.7439 79.6966 52.8086V56.4C79.664 56.497 79.6477 56.6588 79.6477 56.8853V57.8074C79.6477 57.9692 79.6314 58.1148 79.5988 58.2442C79.5988 58.3736 79.5988 58.503 79.5988 58.6325C79.5988 58.7619 79.5825 58.8913 79.5499 59.0207C79.5499 59.1178 79.5499 59.2149 79.5499 59.3119C79.5499 59.4737 79.5336 59.5708 79.501 59.6031V59.8943C79.4684 59.8943 79.4521 59.9267 79.4521 59.9914V60.0884C79.4521 60.1208 79.4358 60.1531 79.4032 60.1855C79.4032 60.1855 79.4032 60.2017 79.4032 60.234C79.4032 60.2664 79.3869 60.2987 79.3543 60.3311L79.4521 60.234C79.4521 60.2017 79.4521 60.1855 79.4521 60.1855C79.4847 60.1531 79.501 60.1208 79.501 60.0884C79.5336 60.0884 79.5499 60.0561 79.5499 59.9914C79.5825 59.9914 79.5988 59.959 79.5988 59.8943C79.6314 59.8943 79.6477 59.862 79.6477 59.7972C79.6803 59.7649 79.6966 59.7164 79.6966 59.6516C79.7618 59.5869 79.7944 59.506 79.7944 59.409C79.8597 59.2149 79.8923 59.1016 79.8923 59.0693Z" fill="#F4EDE8"/>
<path d="M100.739 78.3366C100.869 78.8867 101.016 79.2911 101.179 79.5499C101.342 79.8088 101.505 80.0191 101.668 80.1809C101.831 80.3426 101.978 80.4882 102.108 80.6176C102.239 80.7471 102.337 80.9574 102.402 81.2486H99.8098C99.5815 81.2486 99.3696 81.1677 99.174 81.0059C99.011 80.8441 98.9131 80.65 98.8805 80.4235C98.9131 80.65 98.8642 80.8441 98.7338 81.0059C98.6034 81.1677 98.4404 81.2486 98.2447 81.2486H95.6526C95.5874 80.9574 95.6037 80.7471 95.7015 80.6176C95.7993 80.4882 95.8971 80.3588 95.9949 80.2294C96.0928 80.0676 96.1743 79.8573 96.2395 79.5985C96.3047 79.3073 96.2884 78.8705 96.1906 78.2881V78.2396L95.1146 72.7554C95.0494 72.4318 94.87 72.1568 94.5766 71.9303C94.2831 71.6715 93.9571 71.5421 93.5984 71.5421H90.2238C89.8651 71.5421 89.539 71.6715 89.2456 71.9303C88.9521 72.1568 88.7728 72.4318 88.7076 72.7554L87.6805 78.2396V78.2881C87.5827 78.8705 87.5501 79.3073 87.5827 79.5985C87.6479 79.8573 87.7294 80.0676 87.8272 80.2294C87.9577 80.3588 88.0555 80.4882 88.1207 80.6176C88.2185 80.7471 88.2511 80.9574 88.2185 81.2486H85.6264C85.3981 81.2486 85.2188 81.1677 85.0884 81.0059C84.958 80.8441 84.9091 80.65 84.9417 80.4235C84.9091 80.65 84.8112 80.8441 84.6482 81.0059C84.4852 81.1677 84.2895 81.2486 84.0613 81.2486H81.4692C81.5018 80.9574 81.5833 80.7471 81.7137 80.6176C81.8441 80.4882 81.9909 80.3426 82.1539 80.1809C82.3169 80.0191 82.4799 79.8088 82.643 79.5499C82.806 79.2911 82.9527 78.8867 83.0831 78.3366L85.284 66.5432C85.3492 66.0903 85.3003 65.6697 85.1373 65.2814C84.9743 64.8931 84.7134 64.5858 84.3548 64.3593C84.8764 64.1328 85.3492 64.0196 85.7731 64.0196L88.4142 50.1878C88.512 49.6378 88.5283 49.2334 88.4631 48.9745C88.3978 48.6833 88.3163 48.473 88.2185 48.3436C88.1207 48.1818 88.0229 48.0362 87.9251 47.9068C87.8272 47.7774 87.8109 47.5671 87.8762 47.2759H91.153C91.6421 47.3406 91.8866 47.6156 91.8866 48.1009C91.8866 47.8744 91.9518 47.6965 92.0823 47.5671C92.2453 47.4053 92.4246 47.3082 92.6203 47.2759H95.946C96.0112 47.5671 95.9949 47.7774 95.8971 47.9068C95.8319 48.0362 95.7504 48.1818 95.6526 48.3436C95.5548 48.473 95.4732 48.6833 95.408 48.9745C95.3428 49.2334 95.3591 49.6378 95.4569 50.1878L98.0491 64.0196C98.3099 64.0196 98.5545 64.0519 98.7827 64.1166C99.011 64.1813 99.2392 64.2622 99.4674 64.3593C98.7501 64.8123 98.4403 65.5402 98.5382 66.5432L100.739 78.3366ZM89.001 60.962C89.0663 60.7679 89.0989 60.5899 89.0989 60.4282C89.1315 60.234 89.1641 60.0561 89.1967 59.8943C89.3597 59.1501 89.4901 58.4545 89.5879 57.8074C89.6858 57.128 89.7836 56.5132 89.8814 55.9632C89.9466 55.7043 89.9792 55.4455 89.9792 55.1867C90.0118 54.9278 90.0444 54.669 90.077 54.4101C90.1096 54.1837 90.1422 53.9734 90.1748 53.7792C90.2075 53.5851 90.2401 53.4071 90.2727 53.2454C90.3053 53.0836 90.3216 52.938 90.3216 52.8086C90.3216 52.6468 90.3379 52.5174 90.3705 52.4203V52.2262L90.3216 52.4203C90.289 52.5174 90.2564 52.6306 90.2238 52.76C90.1912 52.8895 90.1585 53.0351 90.1259 53.1968C90.0607 53.3586 90.0118 53.5527 89.9792 53.7792C89.9466 53.9734 89.8977 54.1675 89.8325 54.3616C89.7673 54.6205 89.7021 54.8793 89.6369 55.1381C89.6042 55.397 89.5553 55.6558 89.4901 55.9146C89.3271 56.4647 89.1641 57.0632 89.001 57.7103C88.8706 58.3251 88.7239 59.0045 88.5609 59.7487C88.5609 59.9428 88.5446 60.1208 88.512 60.2826C88.4794 60.4443 88.4305 60.6223 88.3652 60.8164C88.3326 61.0106 88.3 61.2047 88.2674 61.3988C88.2348 61.5606 88.2022 61.7385 88.1696 61.9327C88.0718 62.2886 87.974 62.6607 87.8762 63.0489C87.8109 63.4372 87.7457 63.8254 87.6805 64.2137C87.6153 64.5696 87.5338 64.9417 87.436 65.3299C87.3708 65.7182 87.3056 66.0903 87.2404 66.4462C87.2077 66.5432 87.1914 66.6403 87.1914 66.7374C87.1914 66.8021 87.1751 66.883 87.1425 66.98C87.0773 67.2389 87.0447 67.433 87.0447 67.5624C86.9469 67.886 86.8817 68.2419 86.8491 68.6301C86.7839 68.986 86.7187 69.3419 86.6534 69.6979C86.5882 70.0538 86.5393 70.3773 86.5067 70.6685C86.4089 71.4127 86.3111 72.0274 86.2133 72.5127C86.1481 72.7716 86.0992 73.0304 86.0665 73.2893C86.0339 73.5481 86.0013 73.8069 85.9687 74.0658C85.9035 74.2923 85.8546 74.5187 85.822 74.7452C85.822 74.9394 85.8057 75.1173 85.7731 75.2791C85.7405 75.4409 85.7242 75.5865 85.7242 75.7159C85.7242 75.8453 85.7079 75.9585 85.6753 76.0556C85.6753 76.1203 85.659 76.1688 85.6264 76.2012C85.6264 76.2012 85.6264 76.2174 85.6264 76.2497V76.2983C85.659 76.2983 85.6753 76.2821 85.6753 76.2497C85.6753 76.185 85.6916 76.1203 85.7242 76.0556C85.7568 75.9909 85.7731 75.8938 85.7731 75.7644C85.8057 75.6026 85.8546 75.4409 85.9198 75.2791C85.985 75.1173 86.0339 74.9394 86.0665 74.7452C86.1318 74.5511 86.197 74.3408 86.2622 74.1143C86.3274 73.8878 86.3763 73.6452 86.4089 73.3863C86.4741 73.1275 86.523 72.8686 86.5556 72.6098C86.6208 72.351 86.6861 72.0759 86.7513 71.7847C86.8491 71.4612 86.9306 71.1376 86.9958 70.8141C87.061 70.4905 87.1262 70.1508 87.1914 69.7949C87.2893 69.439 87.3871 69.0831 87.4849 68.7272C87.5175 68.5654 87.5501 68.4037 87.5827 68.2419C87.6153 68.0478 87.6479 67.8698 87.6805 67.708L87.8272 67.1256C87.8599 67.0286 87.8762 66.9315 87.8762 66.8344C87.8762 66.7374 87.8925 66.6403 87.9251 66.5432C87.9903 66.1873 88.0718 65.8314 88.1696 65.4755C88.2674 65.0873 88.3489 64.699 88.4142 64.3108C88.4794 63.9549 88.5446 63.5828 88.6098 63.1945C88.675 62.8062 88.7402 62.4342 88.8054 62.0783C88.838 61.8841 88.8706 61.69 88.9032 61.4959C88.9358 61.3017 88.9684 61.1238 89.001 60.962ZM93.1583 69.2611C93.5169 69.2287 93.7941 69.0993 93.9897 68.8728C94.2179 68.614 94.2995 68.3066 94.2342 67.9507L93.9408 66.5432C93.8104 66.0903 93.5821 65.6697 93.2561 65.2814C92.9626 64.8931 92.604 64.5858 92.1801 64.3593C92.5714 64.1328 92.9952 64.0196 93.4517 64.0196L91.8866 55.7205L90.3216 64.0196C90.7454 64.0196 91.1856 64.1328 91.6421 64.3593C91.1856 64.5858 90.7944 64.8931 90.4683 65.2814C90.1748 65.6697 89.9792 66.0903 89.8814 66.5432L89.6369 67.9507C89.5716 68.3066 89.6369 68.614 89.8325 68.8728C90.0281 69.0993 90.289 69.2287 90.615 69.2611H93.1583ZM98.098 76.0556C98.098 76.1203 98.098 76.1688 98.098 76.2012C98.1306 76.2012 98.1469 76.2174 98.1469 76.2497V76.0556C98.1143 75.9585 98.098 75.8453 98.098 75.7159C98.098 75.5865 98.0817 75.4409 98.0491 75.2791C98.0165 75.1173 97.9839 74.9394 97.9513 74.7452C97.9513 74.5187 97.9187 74.2923 97.8535 74.0658C97.8208 73.8069 97.7882 73.5481 97.7556 73.2893C97.723 73.0304 97.6741 72.7716 97.6089 72.5127C97.5111 72.0274 97.4133 71.4127 97.3155 70.6685C97.2503 70.3773 97.185 70.0538 97.1198 69.6979C97.0872 69.3419 97.0383 68.986 96.9731 68.6301C96.9079 68.436 96.859 68.2581 96.8264 68.0963C96.8264 67.9345 96.7938 67.7566 96.7286 67.5624C96.7286 67.433 96.696 67.2389 96.6307 66.98C96.6307 66.883 96.6144 66.8021 96.5818 66.7374C96.5818 66.6403 96.5818 66.5432 96.5818 66.4462C96.5166 66.0903 96.4351 65.7182 96.3373 65.3299C96.2721 64.9417 96.2069 64.5696 96.1417 64.2137C96.0765 63.8254 95.9949 63.4372 95.8971 63.0489C95.8319 62.6607 95.7504 62.2886 95.6526 61.9327C95.62 61.7385 95.5874 61.5606 95.5548 61.3988C95.5222 61.2047 95.4895 61.0106 95.4569 60.8164C95.3917 60.6223 95.3428 60.4443 95.3102 60.2826C95.2776 60.1208 95.245 59.9428 95.2124 59.7487C95.0494 59.0045 94.8863 58.3251 94.7233 57.7103C94.5929 57.0632 94.4788 56.4647 94.381 55.9146C94.3158 55.6558 94.2505 55.397 94.1853 55.1381C94.1201 54.8793 94.0549 54.6205 93.9897 54.3616C93.9245 54.1675 93.8593 53.9734 93.7941 53.7792C93.7615 53.5527 93.7125 53.3586 93.6473 53.1968C93.6147 53.0351 93.5821 52.8895 93.5495 52.76C93.5169 52.6306 93.4843 52.5174 93.4517 52.4203L93.4028 52.2262V52.4203C93.4354 52.5821 93.4843 52.8571 93.5495 53.2454C93.5495 53.4071 93.5658 53.5851 93.5984 53.7792C93.631 53.9734 93.6636 54.1837 93.6962 54.4101C93.7289 54.669 93.7615 54.9278 93.7941 55.1867C93.8267 55.4455 93.8756 55.7043 93.9408 55.9632C94.0386 56.5132 94.1364 57.128 94.2342 57.8074C94.3321 58.4545 94.4462 59.1501 94.5766 59.8943C94.6092 60.0561 94.6255 60.234 94.6255 60.4282C94.6581 60.5899 94.707 60.7679 94.7722 60.962C94.8048 61.1238 94.8374 61.3017 94.87 61.4959C94.9027 61.69 94.9353 61.8841 94.9679 62.0783C95.0331 62.4342 95.0983 62.8062 95.1635 63.1945C95.2613 63.5828 95.3428 63.9549 95.408 64.3108C95.4732 64.699 95.5548 65.0873 95.6526 65.4755C95.7504 65.8314 95.8319 66.1873 95.8971 66.5432C95.9297 66.6403 95.946 66.7374 95.946 66.8344C95.946 66.9315 95.9623 67.0286 95.9949 67.1256L96.1417 67.708C96.1743 67.8698 96.2069 68.0478 96.2395 68.2419C96.2721 68.4037 96.3047 68.5654 96.3373 68.7272C96.4351 69.0831 96.5166 69.439 96.5818 69.7949C96.647 70.1508 96.7123 70.4905 96.7775 70.8141C96.8427 71.1376 96.9079 71.4612 96.9731 71.7847C97.0709 72.0759 97.1524 72.351 97.2176 72.6098C97.2829 72.8686 97.3481 73.1275 97.4133 73.3863C97.4785 73.6452 97.5437 73.8878 97.6089 74.1143C97.7067 74.5673 97.8045 74.9555 97.9024 75.2791C97.9676 75.4409 98.0002 75.6026 98.0002 75.7644C98.0328 75.8938 98.0654 75.9909 98.098 76.0556Z" fill="#F4EDE8"/>
<path d="M121.26 83.2869C121.618 83.3516 121.863 83.4649 121.993 83.6267C122.156 83.7884 122.27 83.9502 122.335 84.112C122.401 84.3061 122.433 84.5164 122.433 84.7429C121.39 84.7429 120.412 84.6135 119.499 84.3546C118.586 84.0958 117.771 83.6752 117.053 83.0928C116.369 82.5104 115.814 81.7501 115.391 80.8118C114.999 79.8735 114.804 78.7249 114.804 77.366V70.717C114.804 70.2964 114.787 69.7787 114.755 69.164C114.722 68.5493 114.608 67.9669 114.412 67.4168C114.217 66.8668 113.907 66.3976 113.483 66.0094C113.092 65.5888 112.505 65.3785 111.722 65.3785H109.717C109.424 65.4432 109.163 65.605 108.935 65.8638C108.739 66.0903 108.641 66.3653 108.641 66.6888V78.2881C108.641 78.8705 108.69 79.3073 108.788 79.5985C108.918 79.8573 109.049 80.0676 109.179 80.2294C109.31 80.3588 109.424 80.4882 109.522 80.6176C109.652 80.7471 109.717 80.9574 109.717 81.2486H107.125C106.929 81.2486 106.75 81.1677 106.587 81.0059C106.424 80.8441 106.342 80.6662 106.342 80.472C106.342 80.6662 106.261 80.8441 106.098 81.0059C105.968 81.1677 105.788 81.2486 105.56 81.2486H103.017C103.017 80.9574 103.066 80.7471 103.163 80.6176C103.294 80.4882 103.424 80.3588 103.555 80.2294C103.685 80.0676 103.799 79.8573 103.897 79.5985C104.027 79.3396 104.093 78.9352 104.093 78.3852V66.5432C103.995 65.5402 103.538 64.8123 102.723 64.3593C103.082 64.1328 103.538 64.0196 104.093 64.0196V50.1393C104.093 49.5893 104.027 49.1848 103.897 48.926C103.799 48.6671 103.685 48.473 103.555 48.3436C103.424 48.1818 103.294 48.0362 103.163 47.9068C103.066 47.7774 103.017 47.5671 103.017 47.2759H105.609C105.804 47.2759 105.984 47.3568 106.147 47.5185C106.31 47.648 106.391 47.8259 106.391 48.0524C106.391 47.5347 106.652 47.2759 107.174 47.2759H111.771C112.815 47.2759 113.793 47.47 114.706 47.8583C115.619 48.2465 116.418 48.7804 117.102 49.4598C117.787 50.1069 118.325 50.8835 118.716 51.7894C119.108 52.6953 119.319 53.6498 119.352 54.6528V57.8074C119.352 59.1663 119.026 60.412 118.374 61.5444C117.722 62.6768 116.841 63.5828 115.733 64.2622C116.841 64.9093 117.722 65.8153 118.374 66.98C119.026 68.1125 119.352 69.3581 119.352 70.717V77.1718C119.352 77.8513 119.352 78.5469 119.352 79.2587C119.385 79.9382 119.466 80.5691 119.597 81.1515C119.727 81.7015 119.923 82.1707 120.184 82.5589C120.444 82.9472 120.803 83.1899 121.26 83.2869ZM116.809 56.9824C116.776 57.0471 116.76 57.128 116.76 57.225V58.3413C116.727 58.4707 116.711 58.6001 116.711 58.7295C116.711 58.8266 116.711 58.9237 116.711 59.0207C116.711 59.0854 116.695 59.134 116.662 59.1663C116.662 59.1987 116.662 59.2472 116.662 59.3119V59.6031C116.63 59.6678 116.613 59.7487 116.613 59.8458C116.613 59.9105 116.597 59.9752 116.564 60.0399C116.564 60.1046 116.548 60.1531 116.515 60.1855V60.2826L116.466 60.3796C116.466 60.3796 116.499 60.3635 116.564 60.3311V60.2826L116.613 60.234C116.646 60.2017 116.662 60.1855 116.662 60.1855C116.662 60.1531 116.678 60.1208 116.711 60.0884C116.744 60.0237 116.776 59.959 116.809 59.8943C116.841 59.7972 116.874 59.7164 116.907 59.6516C116.939 59.5869 116.956 59.5546 116.956 59.5546C116.956 59.5222 116.972 59.4737 117.004 59.409C117.037 59.3443 117.053 59.2957 117.053 59.2634C117.053 59.1987 117.07 59.134 117.102 59.0693C117.135 59.0045 117.151 58.956 117.151 58.9237C117.151 58.8913 117.168 58.8428 117.2 58.7781C117.2 58.7133 117.2 58.6648 117.2 58.6325C117.233 58.5678 117.249 58.503 117.249 58.4383C117.282 58.3089 117.298 58.1795 117.298 58.0501C117.331 57.9207 117.363 57.7912 117.396 57.6618C117.428 57.5647 117.445 57.4192 117.445 57.225C117.445 57.1603 117.445 57.0956 117.445 57.0309C117.477 56.9662 117.494 56.9015 117.494 56.8368V55.1381C117.494 54.944 117.477 54.7984 117.445 54.7013V54.5072C117.445 54.4425 117.428 54.4101 117.396 54.4101C117.396 54.3778 117.396 54.3293 117.396 54.2645C117.396 54.1028 117.363 53.8601 117.298 53.5366C117.265 53.4719 117.249 53.4071 117.249 53.3424C117.249 53.2777 117.233 53.213 117.2 53.1483C117.2 53.1159 117.184 53.0998 117.151 53.0998C117.151 53.0674 117.151 53.0351 117.151 53.0027C117.151 52.9703 117.135 52.9542 117.102 52.9542C117.102 52.9218 117.102 52.8895 117.102 52.8571C117.07 52.7924 117.053 52.7439 117.053 52.7115C117.053 52.6792 117.037 52.6306 117.004 52.5659C116.972 52.5012 116.956 52.4527 116.956 52.4203C116.956 52.388 116.939 52.3394 116.907 52.2747C116.874 52.2424 116.858 52.21 116.858 52.1777C116.858 52.1453 116.841 52.1129 116.809 52.0806C116.744 51.9512 116.711 51.8865 116.711 51.8865C116.678 51.8541 116.662 51.8379 116.662 51.8379C116.662 51.8056 116.646 51.7732 116.613 51.7409C116.581 51.7085 116.564 51.6762 116.564 51.6438C116.532 51.6114 116.515 51.5791 116.515 51.5467H116.466C116.466 51.5467 116.483 51.5791 116.515 51.6438V51.7409C116.548 51.7732 116.564 51.8379 116.564 51.935C116.564 51.9673 116.564 51.9997 116.564 52.0321C116.597 52.0321 116.613 52.0644 116.613 52.1291C116.613 52.2262 116.63 52.3071 116.662 52.3718V52.6144C116.662 52.6792 116.662 52.7277 116.662 52.76C116.695 52.7924 116.711 52.8409 116.711 52.9056C116.711 53.1968 116.727 53.4233 116.76 53.5851V54.3616C116.793 54.5234 116.809 54.7822 116.809 55.1381V56.9824ZM106.734 61.9812C106.734 61.8194 106.717 61.6415 106.685 61.4473C106.685 61.2532 106.685 61.0591 106.685 60.865V59.7972C106.652 59.0854 106.636 58.406 106.636 57.7589C106.636 57.1118 106.62 56.497 106.587 55.9146C106.554 55.6558 106.538 55.397 106.538 55.1381C106.538 54.8793 106.522 54.6366 106.489 54.4101C106.489 54.1513 106.473 53.9248 106.44 53.7307C106.44 53.5366 106.44 53.3586 106.44 53.1968C106.44 53.0351 106.424 52.8895 106.391 52.76C106.391 52.6306 106.391 52.5174 106.391 52.4203V52.1777C106.359 52.1777 106.342 52.1938 106.342 52.2262V52.4203C106.342 52.5174 106.326 52.6306 106.294 52.76C106.294 52.8895 106.294 53.0351 106.294 53.1968C106.294 53.3586 106.277 53.5366 106.245 53.7307C106.245 53.9248 106.245 54.1513 106.245 54.4101C106.212 54.6366 106.196 54.8793 106.196 55.1381C106.196 55.397 106.179 55.6558 106.147 55.9146C106.114 56.497 106.098 57.1118 106.098 57.7589C106.098 58.406 106.082 59.0854 106.049 59.7972V60.865C106.049 61.0591 106.033 61.2532 106 61.4473C106 61.6415 106 61.8194 106 61.9812V66.4947C106 66.7536 106.016 66.9477 106.049 67.0771V68.6787C106.049 69.0346 106.049 69.3905 106.049 69.7464C106.082 70.0699 106.098 70.3935 106.098 70.717C106.098 71.0729 106.098 71.3965 106.098 71.6877C106.131 71.9789 106.147 72.2701 106.147 72.5613C106.179 72.8525 106.196 73.1275 106.196 73.3863C106.196 73.6128 106.212 73.8555 106.245 74.1143C106.245 74.3408 106.245 74.5511 106.245 74.7452C106.277 74.9394 106.294 75.1173 106.294 75.2791C106.294 75.4409 106.294 75.6026 106.294 75.7644C106.326 75.8938 106.342 75.9909 106.342 76.0556V76.2983C106.342 76.3306 106.359 76.3468 106.391 76.3468V76.0556C106.391 75.9909 106.391 75.8938 106.391 75.7644C106.424 75.6026 106.44 75.4409 106.44 75.2791C106.44 75.1173 106.44 74.9394 106.44 74.7452C106.473 74.5511 106.489 74.3408 106.489 74.1143C106.522 73.8555 106.538 73.6128 106.538 73.3863C106.538 73.1275 106.554 72.8525 106.587 72.5613C106.587 72.2701 106.587 71.9789 106.587 71.6877C106.62 71.3965 106.636 71.0729 106.636 70.717C106.636 70.3935 106.636 70.0699 106.636 69.7464C106.669 69.3905 106.685 69.0346 106.685 68.6787V67.611C106.685 67.3521 106.701 67.1742 106.734 67.0771V61.9812ZM114.804 54.8469C114.804 54.4263 114.787 53.9086 114.755 53.2939C114.722 52.6792 114.608 52.0968 114.412 51.5467C114.217 50.9967 113.907 50.5276 113.483 50.1393C113.092 49.7187 112.505 49.5084 111.722 49.5084H109.962C109.603 49.5407 109.293 49.6863 109.032 49.9452C108.772 50.204 108.641 50.5114 108.641 50.8673V61.7871C108.641 62.143 108.772 62.4503 109.032 62.7092C109.293 62.968 109.603 63.0974 109.962 63.0974H111.722C112.505 63.0974 113.092 62.9033 113.483 62.5151C113.907 62.1268 114.217 61.6577 114.412 61.1076C114.608 60.5252 114.722 59.9428 114.755 59.3604C114.787 58.7457 114.804 58.228 114.804 57.8074V54.8469ZM118.08 81.4427C118.08 81.4427 118.064 81.4265 118.032 81.3942L117.983 81.3456C117.95 81.2809 117.917 81.2162 117.885 81.1515C117.885 81.0868 117.852 81.0221 117.787 80.9574C117.754 80.8603 117.722 80.7632 117.689 80.6662C117.657 80.5368 117.624 80.3912 117.591 80.2294C117.526 79.9058 117.494 79.5985 117.494 79.3073C117.461 79.1455 117.445 78.9837 117.445 78.8219C117.445 78.6278 117.445 78.4175 117.445 78.191V75.6188C117.445 75.3923 117.445 75.1658 117.445 74.9394C117.445 74.7129 117.461 74.4702 117.494 74.2114C117.494 73.9849 117.494 73.7584 117.494 73.5319C117.494 73.3054 117.477 73.0789 117.445 72.8525V72.173C117.445 71.8495 117.428 71.623 117.396 71.4936C117.396 71.2671 117.379 71.0568 117.347 70.8626C117.347 70.6361 117.331 70.4258 117.298 70.2317C117.233 69.7787 117.168 69.3905 117.102 69.0669C117.07 68.9052 117.037 68.7596 117.004 68.6301C116.972 68.4684 116.923 68.3066 116.858 68.1448C116.793 67.983 116.744 67.8536 116.711 67.7566C116.678 67.6595 116.63 67.5624 116.564 67.4654C116.499 67.3683 116.45 67.2874 116.418 67.2227C116.385 67.158 116.352 67.0933 116.32 67.0286C116.287 67.0286 116.255 67.0124 116.222 66.98C116.189 66.98 116.173 66.9639 116.173 66.9315L116.222 66.98C116.222 67.0124 116.238 67.0447 116.271 67.0771C116.271 67.1095 116.271 67.1418 116.271 67.1742C116.303 67.1742 116.32 67.2065 116.32 67.2712C116.352 67.3036 116.369 67.3359 116.369 67.3683C116.369 67.4007 116.385 67.4492 116.418 67.5139C116.45 67.6433 116.499 67.8698 116.564 68.1933C116.597 68.3551 116.613 68.5169 116.613 68.6787C116.646 68.8404 116.678 69.0022 116.711 69.164C116.711 69.3258 116.711 69.5037 116.711 69.6979C116.744 69.8596 116.76 70.0538 116.76 70.2802V76.2983C116.76 76.4277 116.76 76.5409 116.76 76.638C116.793 76.7351 116.809 76.8483 116.809 76.9777C116.809 77.2042 116.809 77.4307 116.809 77.6572C116.841 77.8513 116.874 78.0454 116.907 78.2396C116.939 78.4337 116.956 78.6278 116.956 78.8219C116.988 79.0161 117.021 79.194 117.053 79.3558C117.119 79.5499 117.168 79.7279 117.2 79.8897C117.233 80.0191 117.282 80.1647 117.347 80.3264C117.412 80.4882 117.461 80.6176 117.494 80.7147C117.526 80.8118 117.575 80.9088 117.64 81.0059L117.738 81.103C117.771 81.1353 117.787 81.1677 117.787 81.2C117.787 81.2 117.803 81.2162 117.836 81.2486L118.032 81.4427H118.08Z" fill="#F4EDE8"/>
<path d="M135.924 57.8074C135.924 59.1663 135.598 60.412 134.946 61.5444C134.294 62.6768 133.414 63.5828 132.305 64.2622C133.414 64.9093 134.294 65.8153 134.946 66.98C135.598 68.1125 135.924 69.3581 135.924 70.717V73.8716C135.892 74.907 135.68 75.8776 135.289 76.7836C134.897 77.6572 134.359 78.4337 133.675 79.1131C132.99 79.7602 132.191 80.2779 131.278 80.6662C130.365 81.0544 129.387 81.2486 128.344 81.2486H123.697C123.502 81.2486 123.322 81.1677 123.159 81.0059C122.996 80.8441 122.915 80.6662 122.915 80.472C122.915 80.6662 122.833 80.8441 122.67 81.0059C122.54 81.1677 122.36 81.2486 122.132 81.2486H119.589C119.589 80.9574 119.638 80.7471 119.736 80.6176C119.866 80.4882 119.997 80.3588 120.127 80.2294C120.257 80.0676 120.372 79.8573 120.469 79.5985C120.6 79.3396 120.665 78.9352 120.665 78.3852V66.5432C120.567 65.5402 120.111 64.8123 119.296 64.3593C119.654 64.1328 120.111 64.0196 120.665 64.0196V50.1393C120.665 49.5893 120.6 49.1848 120.469 48.926C120.372 48.6671 120.257 48.473 120.127 48.3436C119.997 48.1818 119.866 48.0362 119.736 47.9068C119.638 47.7774 119.589 47.5671 119.589 47.2759H122.181C122.377 47.2759 122.556 47.3568 122.719 47.5185C122.882 47.648 122.964 47.8259 122.964 48.0524C122.964 47.5347 123.225 47.2759 123.746 47.2759H128.344C129.387 47.2759 130.365 47.47 131.278 47.8583C132.191 48.2465 132.99 48.7804 133.675 49.4598C134.359 50.1069 134.897 50.8835 135.289 51.7894C135.68 52.6953 135.892 53.6498 135.924 54.6528V57.8074ZM123.306 61.9812C123.306 61.8194 123.29 61.6415 123.257 61.4473C123.257 61.2532 123.257 61.0591 123.257 60.865V59.7972C123.225 59.0854 123.208 58.406 123.208 57.7589C123.208 57.1118 123.192 56.497 123.159 55.9146C123.127 55.6558 123.11 55.397 123.11 55.1381C123.11 54.8793 123.094 54.6366 123.061 54.4101C123.061 54.1513 123.045 53.9248 123.013 53.7307C123.013 53.5366 123.013 53.3586 123.013 53.1968C123.013 53.0351 122.996 52.8895 122.964 52.76C122.964 52.6306 122.964 52.5174 122.964 52.4203V52.1777C122.931 52.1777 122.915 52.1938 122.915 52.2262V52.4203C122.915 52.5174 122.898 52.6306 122.866 52.76C122.866 52.8895 122.866 53.0351 122.866 53.1968C122.866 53.3586 122.85 53.5366 122.817 53.7307C122.817 53.9248 122.817 54.1513 122.817 54.4101C122.784 54.6366 122.768 54.8793 122.768 55.1381C122.768 55.397 122.752 55.6558 122.719 55.9146C122.687 56.497 122.67 57.1118 122.67 57.7589C122.67 58.406 122.654 59.0854 122.621 59.7972V60.865C122.621 61.0591 122.605 61.2532 122.572 61.4473C122.572 61.6415 122.572 61.8194 122.572 61.9812V66.4947C122.572 66.7536 122.589 66.9477 122.621 67.0771V68.6787C122.621 69.0346 122.621 69.3905 122.621 69.7464C122.654 70.0699 122.67 70.3935 122.67 70.717C122.67 71.0729 122.67 71.3965 122.67 71.6877C122.703 71.9789 122.719 72.2701 122.719 72.5613C122.752 72.8525 122.768 73.1275 122.768 73.3863C122.768 73.6128 122.784 73.8555 122.817 74.1143C122.817 74.3408 122.817 74.5511 122.817 74.7452C122.85 74.9394 122.866 75.1173 122.866 75.2791C122.866 75.4409 122.866 75.6026 122.866 75.7644C122.898 75.8938 122.915 75.9909 122.915 76.0556V76.2983C122.915 76.3306 122.931 76.3468 122.964 76.3468V76.0556C122.964 75.9909 122.964 75.8938 122.964 75.7644C122.996 75.6026 123.013 75.4409 123.013 75.2791C123.013 75.1173 123.013 74.9394 123.013 74.7452C123.045 74.5511 123.061 74.3408 123.061 74.1143C123.094 73.8555 123.11 73.6128 123.11 73.3863C123.11 73.1275 123.127 72.8525 123.159 72.5613C123.159 72.2701 123.159 71.9789 123.159 71.6877C123.192 71.3965 123.208 71.0729 123.208 70.717C123.208 70.3935 123.208 70.0699 123.208 69.7464C123.241 69.3905 123.257 69.0346 123.257 68.6787V67.611C123.257 67.3521 123.273 67.1742 123.306 67.0771V61.9812ZM133.381 73.2407C133.349 73.3054 133.332 73.3863 133.332 73.4834V74.5996C133.3 74.729 133.283 74.8585 133.283 74.9879C133.283 75.0849 133.283 75.182 133.283 75.2791C133.283 75.3438 133.267 75.3923 133.234 75.4247C133.234 75.457 133.234 75.5056 133.234 75.5703V75.8615C133.202 75.9262 133.185 76.0071 133.185 76.1041C133.185 76.1688 133.169 76.2336 133.137 76.2983C133.137 76.363 133.12 76.4115 133.088 76.4439V76.5409L133.039 76.638C133.039 76.638 133.071 76.6218 133.137 76.5895V76.5409L133.185 76.4924C133.218 76.46 133.234 76.4439 133.234 76.4439C133.234 76.4115 133.251 76.3791 133.283 76.3468C133.316 76.2821 133.349 76.2174 133.381 76.1527C133.414 76.0556 133.446 75.9747 133.479 75.91C133.512 75.8453 133.528 75.8129 133.528 75.8129C133.528 75.7806 133.544 75.732 133.577 75.6673C133.609 75.6026 133.626 75.5541 133.626 75.5217C133.626 75.4894 133.642 75.4409 133.675 75.3761C133.707 75.3114 133.723 75.2629 133.723 75.2305C133.723 75.1658 133.74 75.1011 133.772 75.0364C133.772 74.9717 133.772 74.9232 133.772 74.8908C133.805 74.8261 133.821 74.7614 133.821 74.6967C133.854 74.5673 133.87 74.4379 133.87 74.3084C133.903 74.179 133.935 74.0496 133.968 73.9202C134.001 73.8231 134.017 73.6775 134.017 73.4834C134.017 73.4187 134.017 73.354 134.017 73.2893C134.05 73.2245 134.066 73.1598 134.066 73.0951V71.3965C134.066 71.2024 134.05 71.0568 134.017 70.9597V70.7656C134.017 70.7009 134.001 70.6685 133.968 70.6685C133.968 70.6361 133.968 70.6038 133.968 70.5714C133.968 70.4097 133.952 70.2802 133.919 70.1832C133.919 70.0538 133.903 69.9243 133.87 69.7949C133.838 69.7302 133.821 69.6655 133.821 69.6008C133.821 69.5361 133.805 69.4714 133.772 69.4067C133.772 69.3743 133.756 69.3581 133.723 69.3581C133.723 69.3258 133.723 69.2934 133.723 69.2611C133.723 69.2287 133.707 69.2125 133.675 69.2125C133.675 69.1802 133.675 69.1478 133.675 69.1155C133.642 69.0508 133.626 69.0022 133.626 68.9699C133.626 68.9375 133.609 68.889 133.577 68.8243C133.544 68.7596 133.528 68.711 133.528 68.6787C133.528 68.6463 133.512 68.5978 133.479 68.5331C133.446 68.5007 133.43 68.4684 133.43 68.436C133.43 68.4037 133.414 68.3713 133.381 68.3389C133.316 68.2095 133.283 68.1448 133.283 68.1448C133.251 68.1125 133.234 68.0963 133.234 68.0963C133.234 68.0639 133.218 68.0316 133.185 67.9992C133.153 67.9669 133.137 67.9345 133.137 67.9022L133.039 67.8051C133.039 67.8051 133.055 67.8374 133.088 67.9022V67.9992C133.12 68.0316 133.137 68.0963 133.137 68.1933C133.137 68.2257 133.137 68.2581 133.137 68.2904C133.169 68.2904 133.185 68.3228 133.185 68.3875C133.185 68.4845 133.202 68.5654 133.234 68.6301V68.8728C133.234 68.9375 133.234 68.986 133.234 69.0184C133.267 69.0508 133.283 69.0993 133.283 69.164C133.283 69.4552 133.3 69.6817 133.332 69.8435V70.62C133.365 70.7817 133.381 71.0406 133.381 71.3965V73.2407ZM131.376 70.717C131.376 70.2964 131.36 69.7787 131.327 69.164C131.294 68.5493 131.18 67.9669 130.985 67.4168C130.789 66.8668 130.479 66.3976 130.055 66.0094C129.664 65.5888 129.077 65.3785 128.295 65.3785H126.534C126.175 65.4108 125.866 65.5564 125.605 65.8153C125.344 66.0741 125.213 66.3815 125.213 66.7374V77.6572C125.213 78.0131 125.344 78.3204 125.605 78.5793C125.866 78.8381 126.175 78.9675 126.534 78.9675H128.295C129.077 78.9675 129.664 78.7734 130.055 78.3852C130.479 77.9969 130.789 77.5277 130.985 76.9777C131.18 76.3953 131.294 75.8129 131.327 75.2305C131.36 74.6158 131.376 74.0981 131.376 73.6775V70.717ZM131.376 54.8469C131.376 54.4263 131.36 53.9086 131.327 53.2939C131.294 52.6792 131.18 52.0968 130.985 51.5467C130.789 50.9967 130.479 50.5276 130.055 50.1393C129.664 49.7187 129.077 49.5084 128.295 49.5084H126.534C126.175 49.5407 125.866 49.6863 125.605 49.9452C125.344 50.204 125.213 50.5114 125.213 50.8673V61.7871C125.213 62.143 125.344 62.4503 125.605 62.7092C125.866 62.968 126.175 63.0974 126.534 63.0974H128.295C129.077 63.0974 129.664 62.9033 130.055 62.5151C130.479 62.1268 130.789 61.6577 130.985 61.1076C131.18 60.5252 131.294 59.9428 131.327 59.3604C131.36 58.7457 131.376 58.228 131.376 57.8074V54.8469ZM133.479 59.6516C133.512 59.5869 133.528 59.5546 133.528 59.5546C133.528 59.5222 133.544 59.4737 133.577 59.409C133.609 59.3443 133.626 59.2957 133.626 59.2634C133.626 59.1987 133.642 59.134 133.675 59.0693C133.707 59.0045 133.723 58.956 133.723 58.9237C133.723 58.8913 133.74 58.8428 133.772 58.7781C133.772 58.7133 133.772 58.6648 133.772 58.6325C133.805 58.5678 133.821 58.503 133.821 58.4383C133.854 58.3089 133.87 58.1795 133.87 58.0501C133.903 57.9207 133.935 57.7912 133.968 57.6618C134.001 57.5647 134.017 57.4192 134.017 57.225C134.017 57.1603 134.017 57.0956 134.017 57.0309C134.05 56.9662 134.066 56.9015 134.066 56.8368V55.1381C134.066 54.944 134.05 54.7984 134.017 54.7013V54.5072C134.017 54.4425 134.001 54.4101 133.968 54.4101C133.968 54.3778 133.968 54.3293 133.968 54.2645C133.968 54.1028 133.935 53.8601 133.87 53.5366C133.838 53.4719 133.821 53.4071 133.821 53.3424C133.821 53.2777 133.805 53.213 133.772 53.1483C133.772 53.1159 133.756 53.0998 133.723 53.0998C133.723 53.0674 133.723 53.0351 133.723 53.0027C133.723 52.9703 133.707 52.9542 133.675 52.9542C133.675 52.9218 133.675 52.8895 133.675 52.8571C133.642 52.7924 133.626 52.7439 133.626 52.7115C133.626 52.6792 133.609 52.6306 133.577 52.5659C133.544 52.5012 133.528 52.4527 133.528 52.4203C133.528 52.388 133.512 52.3394 133.479 52.2747C133.446 52.2424 133.43 52.21 133.43 52.1777C133.43 52.1453 133.414 52.1129 133.381 52.0806C133.316 51.9512 133.283 51.8865 133.283 51.8865C133.251 51.8541 133.234 51.8379 133.234 51.8379C133.234 51.8056 133.218 51.7732 133.185 51.7409C133.153 51.7085 133.137 51.6762 133.137 51.6438C133.104 51.6114 133.088 51.5791 133.088 51.5467H133.039C133.039 51.5467 133.055 51.5791 133.088 51.6438V51.7409C133.12 51.7732 133.137 51.8379 133.137 51.935C133.137 51.9673 133.137 51.9997 133.137 52.0321C133.169 52.0321 133.185 52.0644 133.185 52.1291C133.185 52.2262 133.202 52.3071 133.234 52.3718V52.6144C133.234 52.6792 133.234 52.7277 133.234 52.76C133.267 52.7924 133.283 52.8409 133.283 52.9056C133.283 53.1968 133.3 53.4233 133.332 53.5851V54.3616C133.365 54.5234 133.381 54.7822 133.381 55.1381V56.9824C133.349 57.0471 133.332 57.128 133.332 57.225V58.3413C133.3 58.4707 133.283 58.6001 133.283 58.7295C133.283 58.8266 133.283 58.9237 133.283 59.0207C133.283 59.0854 133.267 59.134 133.234 59.1663C133.234 59.1987 133.234 59.2472 133.234 59.3119V59.6031C133.202 59.6678 133.185 59.7487 133.185 59.8458C133.185 59.9105 133.169 59.9752 133.137 60.0399C133.137 60.1046 133.12 60.1531 133.088 60.1855V60.2826L133.039 60.3796C133.039 60.3796 133.071 60.3635 133.137 60.3311V60.2826L133.185 60.234C133.218 60.2017 133.234 60.1855 133.234 60.1855C133.234 60.1531 133.251 60.1208 133.283 60.0884C133.316 60.0237 133.349 59.959 133.381 59.8943C133.414 59.7972 133.446 59.7164 133.479 59.6516Z" fill="#F4EDE8"/>
<path d="M152.594 78.2881C152.594 78.8705 152.643 79.3073 152.741 79.5985C152.872 79.8573 153.002 80.0676 153.132 80.2294C153.263 80.3588 153.377 80.4882 153.475 80.6176C153.605 80.7471 153.67 80.9574 153.67 81.2486H140.367C140.172 81.2486 139.992 81.1677 139.829 81.0059C139.666 80.8441 139.585 80.6662 139.585 80.472C139.585 80.6662 139.503 80.8441 139.34 81.0059C139.21 81.1677 139.031 81.2486 138.802 81.2486H136.259C136.259 80.9574 136.308 80.7471 136.406 80.6176C136.536 80.4882 136.667 80.3588 136.797 80.2294C136.927 80.0676 137.042 79.8573 137.139 79.5985C137.27 79.3396 137.335 78.9352 137.335 78.3852V66.5432C137.237 65.5402 136.781 64.8123 135.966 64.3593C136.324 64.1328 136.781 64.0196 137.335 64.0196V50.1393C137.335 49.5893 137.27 49.1848 137.139 48.926C137.042 48.6671 136.927 48.473 136.797 48.3436C136.667 48.1818 136.536 48.0362 136.406 47.9068C136.308 47.7774 136.259 47.5671 136.259 47.2759H138.851C139.047 47.2759 139.226 47.3568 139.389 47.5185C139.552 47.648 139.634 47.8259 139.634 48.0524C139.634 47.5347 139.895 47.2759 140.416 47.2759H153.67C153.67 47.5671 153.605 47.7774 153.475 47.9068C153.377 48.0362 153.263 48.1818 153.132 48.3436C153.002 48.473 152.872 48.6833 152.741 48.9745C152.643 49.2334 152.594 49.654 152.594 50.2364V56.6912C151.453 56.6912 150.573 56.4809 149.953 56.0602C149.367 55.6073 148.926 55.1058 148.633 54.5557C148.274 53.941 148.079 53.213 148.046 52.3718V50.8673C148.046 50.5114 147.916 50.204 147.655 49.9452C147.394 49.6863 147.084 49.5407 146.725 49.5084H143.204C142.845 49.5407 142.536 49.6863 142.275 49.9452C142.014 50.204 141.884 50.5114 141.884 50.8673V61.7871C141.884 62.143 142.014 62.4503 142.275 62.7092C142.536 62.968 142.845 63.0974 143.204 63.0974H143.546C143.905 63.0974 144.199 62.968 144.427 62.7092C144.688 62.4503 144.818 62.143 144.818 61.7871V61.7385C144.851 61.2532 144.981 60.8326 145.209 60.4767C145.405 60.1531 145.698 59.862 146.09 59.6031C146.481 59.3443 147.052 59.2149 147.801 59.2149V69.2611C147.052 69.2611 146.481 69.1316 146.09 68.8728C145.698 68.614 145.405 68.3228 145.209 67.9992C144.981 67.6433 144.851 67.2227 144.818 66.7374C144.818 66.3815 144.688 66.0741 144.427 65.8153C144.199 65.5564 143.905 65.4108 143.546 65.3785H143.204C142.845 65.4108 142.536 65.5564 142.275 65.8153C142.014 66.0741 141.884 66.3815 141.884 66.7374V77.6572C141.884 78.0131 142.014 78.3204 142.275 78.5793C142.536 78.8381 142.845 78.9675 143.204 78.9675H146.725C147.084 78.9675 147.394 78.8381 147.655 78.5793C147.916 78.3204 148.046 78.0131 148.046 77.6572V76.1041C148.079 75.2953 148.274 74.5834 148.633 73.9687C148.926 73.4187 149.367 72.9172 149.953 72.4642C150.573 72.0112 151.453 71.7847 152.594 71.7847V78.2881ZM139.976 61.9812C139.976 61.8194 139.96 61.6415 139.927 61.4473C139.927 61.2532 139.927 61.0591 139.927 60.865V59.7972C139.895 59.0854 139.878 58.406 139.878 57.7589C139.878 57.1118 139.862 56.497 139.829 55.9146C139.797 55.6558 139.78 55.397 139.78 55.1381C139.78 54.8793 139.764 54.6366 139.732 54.4101C139.732 54.1513 139.715 53.9248 139.683 53.7307C139.683 53.5366 139.683 53.3586 139.683 53.1968C139.683 53.0351 139.666 52.8895 139.634 52.76C139.634 52.6306 139.634 52.5174 139.634 52.4203V52.1777C139.601 52.1777 139.585 52.1938 139.585 52.2262V52.4203C139.585 52.5174 139.569 52.6306 139.536 52.76C139.536 52.8895 139.536 53.0351 139.536 53.1968C139.536 53.3586 139.52 53.5366 139.487 53.7307C139.487 53.9248 139.487 54.1513 139.487 54.4101C139.454 54.6366 139.438 54.8793 139.438 55.1381C139.438 55.397 139.422 55.6558 139.389 55.9146C139.357 56.497 139.34 57.1118 139.34 57.7589C139.34 58.406 139.324 59.0854 139.291 59.7972V60.865C139.291 61.0591 139.275 61.2532 139.242 61.4473C139.242 61.6415 139.242 61.8194 139.242 61.9812V66.4947C139.242 66.7536 139.259 66.9477 139.291 67.0771V68.6787C139.291 69.0346 139.291 69.3905 139.291 69.7464C139.324 70.0699 139.34 70.3935 139.34 70.717C139.34 71.0729 139.34 71.3965 139.34 71.6877C139.373 71.9789 139.389 72.2701 139.389 72.5613C139.422 72.8525 139.438 73.1275 139.438 73.3863C139.438 73.6128 139.454 73.8555 139.487 74.1143C139.487 74.3408 139.487 74.5511 139.487 74.7452C139.52 74.9394 139.536 75.1173 139.536 75.2791C139.536 75.4409 139.536 75.6026 139.536 75.7644C139.569 75.8938 139.585 75.9909 139.585 76.0556V76.2983C139.585 76.3306 139.601 76.3468 139.634 76.3468V76.0556C139.634 75.9909 139.634 75.8938 139.634 75.7644C139.666 75.6026 139.683 75.4409 139.683 75.2791C139.683 75.1173 139.683 74.9394 139.683 74.7452C139.715 74.5511 139.732 74.3408 139.732 74.1143C139.764 73.8555 139.78 73.6128 139.78 73.3863C139.78 73.1275 139.797 72.8525 139.829 72.5613C139.829 72.2701 139.829 71.9789 139.829 71.6877C139.862 71.3965 139.878 71.0729 139.878 70.717C139.878 70.3935 139.878 70.0699 139.878 69.7464C139.911 69.3905 139.927 69.0346 139.927 68.6787V67.611C139.927 67.3521 139.944 67.1742 139.976 67.0771V61.9812Z" fill="#F4EDE8"/>
<path d="M172.269 83.2869C172.628 83.3516 172.873 83.4649 173.003 83.6267C173.166 83.7884 173.28 83.9502 173.345 84.112C173.411 84.3061 173.443 84.5164 173.443 84.7429C172.4 84.7429 171.422 84.6135 170.509 84.3546C169.596 84.0958 168.781 83.6752 168.063 83.0928C167.379 82.5104 166.824 81.7501 166.4 80.8118C166.009 79.8735 165.813 78.7249 165.813 77.366V70.717C165.813 70.2964 165.797 69.7787 165.765 69.164C165.732 68.5493 165.618 67.9669 165.422 67.4168C165.227 66.8668 164.917 66.3976 164.493 66.0094C164.102 65.5888 163.515 65.3785 162.732 65.3785H160.727C160.434 65.4432 160.173 65.605 159.944 65.8638C159.749 66.0903 159.651 66.3653 159.651 66.6888V78.2881C159.651 78.8705 159.7 79.3073 159.798 79.5985C159.928 79.8573 160.059 80.0676 160.189 80.2294C160.319 80.3588 160.434 80.4882 160.531 80.6176C160.662 80.7471 160.727 80.9574 160.727 81.2486H158.135C157.939 81.2486 157.76 81.1677 157.597 81.0059C157.434 80.8441 157.352 80.6662 157.352 80.472C157.352 80.6662 157.271 80.8441 157.108 81.0059C156.977 81.1677 156.798 81.2486 156.57 81.2486H154.027C154.027 80.9574 154.075 80.7471 154.173 80.6176C154.304 80.4882 154.434 80.3588 154.565 80.2294C154.695 80.0676 154.809 79.8573 154.907 79.5985C155.037 79.3396 155.103 78.9352 155.103 78.3852V66.5432C155.005 65.5402 154.548 64.8123 153.733 64.3593C154.092 64.1328 154.548 64.0196 155.103 64.0196V50.1393C155.103 49.5893 155.037 49.1848 154.907 48.926C154.809 48.6671 154.695 48.473 154.565 48.3436C154.434 48.1818 154.304 48.0362 154.173 47.9068C154.075 47.7774 154.027 47.5671 154.027 47.2759H156.619C156.814 47.2759 156.994 47.3568 157.157 47.5185C157.32 47.648 157.401 47.8259 157.401 48.0524C157.401 47.5347 157.662 47.2759 158.184 47.2759H162.781C163.825 47.2759 164.803 47.47 165.716 47.8583C166.629 48.2465 167.427 48.7804 168.112 49.4598C168.797 50.1069 169.335 50.8835 169.726 51.7894C170.117 52.6953 170.329 53.6498 170.362 54.6528V57.8074C170.362 59.1663 170.036 60.412 169.384 61.5444C168.732 62.6768 167.851 63.5828 166.743 64.2622C167.851 64.9093 168.732 65.8153 169.384 66.98C170.036 68.1125 170.362 69.3581 170.362 70.717V77.1718C170.362 77.8513 170.362 78.5469 170.362 79.2587C170.395 79.9382 170.476 80.5691 170.606 81.1515C170.737 81.7015 170.933 82.1707 171.193 82.5589C171.454 82.9472 171.813 83.1899 172.269 83.2869ZM167.819 56.9824C167.786 57.0471 167.77 57.128 167.77 57.225V58.3413C167.737 58.4707 167.721 58.6001 167.721 58.7295C167.721 58.8266 167.721 58.9237 167.721 59.0207C167.721 59.0854 167.705 59.134 167.672 59.1663C167.672 59.1987 167.672 59.2472 167.672 59.3119V59.6031C167.639 59.6678 167.623 59.7487 167.623 59.8458C167.623 59.9105 167.607 59.9752 167.574 60.0399C167.574 60.1046 167.558 60.1531 167.525 60.1855V60.2826L167.476 60.3796C167.476 60.3796 167.509 60.3635 167.574 60.3311V60.2826L167.623 60.234C167.656 60.2017 167.672 60.1855 167.672 60.1855C167.672 60.1531 167.688 60.1208 167.721 60.0884C167.753 60.0237 167.786 59.959 167.819 59.8943C167.851 59.7972 167.884 59.7164 167.917 59.6516C167.949 59.5869 167.965 59.5546 167.965 59.5546C167.965 59.5222 167.982 59.4737 168.014 59.409C168.047 59.3443 168.063 59.2957 168.063 59.2634C168.063 59.1987 168.08 59.134 168.112 59.0693C168.145 59.0045 168.161 58.956 168.161 58.9237C168.161 58.8913 168.177 58.8428 168.21 58.7781C168.21 58.7133 168.21 58.6648 168.21 58.6325C168.243 58.5678 168.259 58.503 168.259 58.4383C168.291 58.3089 168.308 58.1795 168.308 58.0501C168.34 57.9207 168.373 57.7912 168.406 57.6618C168.438 57.5647 168.454 57.4192 168.454 57.225C168.454 57.1603 168.454 57.0956 168.454 57.0309C168.487 56.9662 168.503 56.9015 168.503 56.8368V55.1381C168.503 54.944 168.487 54.7984 168.454 54.7013V54.5072C168.454 54.4425 168.438 54.4101 168.406 54.4101C168.406 54.3778 168.406 54.3293 168.406 54.2645C168.406 54.1028 168.373 53.8601 168.308 53.5366C168.275 53.4719 168.259 53.4071 168.259 53.3424C168.259 53.2777 168.243 53.213 168.21 53.1483C168.21 53.1159 168.194 53.0998 168.161 53.0998C168.161 53.0674 168.161 53.0351 168.161 53.0027C168.161 52.9703 168.145 52.9542 168.112 52.9542C168.112 52.9218 168.112 52.8895 168.112 52.8571C168.08 52.7924 168.063 52.7439 168.063 52.7115C168.063 52.6792 168.047 52.6306 168.014 52.5659C167.982 52.5012 167.965 52.4527 167.965 52.4203C167.965 52.388 167.949 52.3394 167.917 52.2747C167.884 52.2424 167.868 52.21 167.868 52.1777C167.868 52.1453 167.851 52.1129 167.819 52.0806C167.753 51.9512 167.721 51.8865 167.721 51.8865C167.688 51.8541 167.672 51.8379 167.672 51.8379C167.672 51.8056 167.656 51.7732 167.623 51.7409C167.59 51.7085 167.574 51.6762 167.574 51.6438C167.542 51.6114 167.525 51.5791 167.525 51.5467H167.476C167.476 51.5467 167.493 51.5791 167.525 51.6438V51.7409C167.558 51.7732 167.574 51.8379 167.574 51.935C167.574 51.9673 167.574 51.9997 167.574 52.0321C167.607 52.0321 167.623 52.0644 167.623 52.1291C167.623 52.2262 167.639 52.3071 167.672 52.3718V52.6144C167.672 52.6792 167.672 52.7277 167.672 52.76C167.705 52.7924 167.721 52.8409 167.721 52.9056C167.721 53.1968 167.737 53.4233 167.77 53.5851V54.3616C167.802 54.5234 167.819 54.7822 167.819 55.1381V56.9824ZM157.744 61.9812C157.744 61.8194 157.727 61.6415 157.695 61.4473C157.695 61.2532 157.695 61.0591 157.695 60.865V59.7972C157.662 59.0854 157.646 58.406 157.646 57.7589C157.646 57.1118 157.629 56.497 157.597 55.9146C157.564 55.6558 157.548 55.397 157.548 55.1381C157.548 54.8793 157.532 54.6366 157.499 54.4101C157.499 54.1513 157.483 53.9248 157.45 53.7307C157.45 53.5366 157.45 53.3586 157.45 53.1968C157.45 53.0351 157.434 52.8895 157.401 52.76C157.401 52.6306 157.401 52.5174 157.401 52.4203V52.1777C157.369 52.1777 157.352 52.1938 157.352 52.2262V52.4203C157.352 52.5174 157.336 52.6306 157.303 52.76C157.303 52.8895 157.303 53.0351 157.303 53.1968C157.303 53.3586 157.287 53.5366 157.254 53.7307C157.254 53.9248 157.254 54.1513 157.254 54.4101C157.222 54.6366 157.206 54.8793 157.206 55.1381C157.206 55.397 157.189 55.6558 157.157 55.9146C157.124 56.497 157.108 57.1118 157.108 57.7589C157.108 58.406 157.091 59.0854 157.059 59.7972V60.865C157.059 61.0591 157.043 61.2532 157.01 61.4473C157.01 61.6415 157.01 61.8194 157.01 61.9812V66.4947C157.01 66.7536 157.026 66.9477 157.059 67.0771V68.6787C157.059 69.0346 157.059 69.3905 157.059 69.7464C157.091 70.0699 157.108 70.3935 157.108 70.717C157.108 71.0729 157.108 71.3965 157.108 71.6877C157.14 71.9789 157.157 72.2701 157.157 72.5613C157.189 72.8525 157.206 73.1275 157.206 73.3863C157.206 73.6128 157.222 73.8555 157.254 74.1143C157.254 74.3408 157.254 74.5511 157.254 74.7452C157.287 74.9394 157.303 75.1173 157.303 75.2791C157.303 75.4409 157.303 75.6026 157.303 75.7644C157.336 75.8938 157.352 75.9909 157.352 76.0556V76.2983C157.352 76.3306 157.369 76.3468 157.401 76.3468V76.0556C157.401 75.9909 157.401 75.8938 157.401 75.7644C157.434 75.6026 157.45 75.4409 157.45 75.2791C157.45 75.1173 157.45 74.9394 157.45 74.7452C157.483 74.5511 157.499 74.3408 157.499 74.1143C157.532 73.8555 157.548 73.6128 157.548 73.3863C157.548 73.1275 157.564 72.8525 157.597 72.5613C157.597 72.2701 157.597 71.9789 157.597 71.6877C157.629 71.3965 157.646 71.0729 157.646 70.717C157.646 70.3935 157.646 70.0699 157.646 69.7464C157.678 69.3905 157.695 69.0346 157.695 68.6787V67.611C157.695 67.3521 157.711 67.1742 157.744 67.0771V61.9812ZM165.813 54.8469C165.813 54.4263 165.797 53.9086 165.765 53.2939C165.732 52.6792 165.618 52.0968 165.422 51.5467C165.227 50.9967 164.917 50.5276 164.493 50.1393C164.102 49.7187 163.515 49.5084 162.732 49.5084H160.972C160.613 49.5407 160.303 49.6863 160.042 49.9452C159.781 50.204 159.651 50.5114 159.651 50.8673V61.7871C159.651 62.143 159.781 62.4503 160.042 62.7092C160.303 62.968 160.613 63.0974 160.972 63.0974H162.732C163.515 63.0974 164.102 62.9033 164.493 62.5151C164.917 62.1268 165.227 61.6577 165.422 61.1076C165.618 60.5252 165.732 59.9428 165.765 59.3604C165.797 58.7457 165.813 58.228 165.813 57.8074V54.8469ZM169.09 81.4427C169.09 81.4427 169.074 81.4265 169.041 81.3942L168.992 81.3456C168.96 81.2809 168.927 81.2162 168.895 81.1515C168.895 81.0868 168.862 81.0221 168.797 80.9574C168.764 80.8603 168.732 80.7632 168.699 80.6662C168.666 80.5368 168.634 80.3912 168.601 80.2294C168.536 79.9058 168.503 79.5985 168.503 79.3073C168.471 79.1455 168.454 78.9837 168.454 78.8219C168.454 78.6278 168.454 78.4175 168.454 78.191V75.6188C168.454 75.3923 168.454 75.1658 168.454 74.9394C168.454 74.7129 168.471 74.4702 168.503 74.2114C168.503 73.9849 168.503 73.7584 168.503 73.5319C168.503 73.3054 168.487 73.0789 168.454 72.8525V72.173C168.454 71.8495 168.438 71.623 168.406 71.4936C168.406 71.2671 168.389 71.0568 168.357 70.8626C168.357 70.6361 168.34 70.4258 168.308 70.2317C168.243 69.7787 168.177 69.3905 168.112 69.0669C168.08 68.9052 168.047 68.7596 168.014 68.6301C167.982 68.4684 167.933 68.3066 167.868 68.1448C167.802 67.983 167.753 67.8536 167.721 67.7566C167.688 67.6595 167.639 67.5624 167.574 67.4654C167.509 67.3683 167.46 67.2874 167.427 67.2227C167.395 67.158 167.362 67.0933 167.33 67.0286C167.297 67.0286 167.264 67.0124 167.232 66.98C167.199 66.98 167.183 66.9639 167.183 66.9315L167.232 66.98C167.232 67.0124 167.248 67.0447 167.281 67.0771C167.281 67.1095 167.281 67.1418 167.281 67.1742C167.313 67.1742 167.33 67.2065 167.33 67.2712C167.362 67.3036 167.379 67.3359 167.379 67.3683C167.379 67.4007 167.395 67.4492 167.427 67.5139C167.46 67.6433 167.509 67.8698 167.574 68.1933C167.607 68.3551 167.623 68.5169 167.623 68.6787C167.656 68.8404 167.688 69.0022 167.721 69.164C167.721 69.3258 167.721 69.5037 167.721 69.6979C167.753 69.8596 167.77 70.0538 167.77 70.2802V76.2983C167.77 76.4277 167.77 76.5409 167.77 76.638C167.802 76.7351 167.819 76.8483 167.819 76.9777C167.819 77.2042 167.819 77.4307 167.819 77.6572C167.851 77.8513 167.884 78.0454 167.917 78.2396C167.949 78.4337 167.965 78.6278 167.965 78.8219C167.998 79.0161 168.031 79.194 168.063 79.3558C168.128 79.5499 168.177 79.7279 168.21 79.8897C168.243 80.0191 168.291 80.1647 168.357 80.3264C168.422 80.4882 168.471 80.6176 168.503 80.7147C168.536 80.8118 168.585 80.9088 168.65 81.0059L168.748 81.103C168.781 81.1353 168.797 81.1677 168.797 81.2C168.797 81.2 168.813 81.2162 168.846 81.2486L169.041 81.4427H169.09Z" fill="#F4EDE8"/>
<ellipse rx="2.62009" ry="2.59995" transform="matrix(1 0 0 -1 183.406 65.0248)" fill="#999591"/>
<ellipse rx="2.62009" ry="2.59995" transform="matrix(1 0 0 -1 16.5937 65.0248)" fill="#999591"/>
</svg>
